<?xml version="1.0" encoding="UTF-8" standalone="no"?>
<!-- Created with Inkscape (http://www.inkscape.org/) -->

<svg xmlns:osb="http://www.openswatchbook.org/uri/2009/osb" xmlns:dc="http://purl.org/dc/elements/1.1/" xmlns:cc="http://creativecommons.org/ns#" xmlns:rdf="http://www.w3.org/1999/02/22-rdf-syntax-ns#" xmlns:svg="http://www.w3.org/2000/svg" xmlns="http://www.w3.org/2000/svg" xmlns:sodipodi="http://sodipodi.sourceforge.net/DTD/sodipodi-0.dtd" xmlns:inkscape="http://www.inkscape.org/namespaces/inkscape" width="16" height="16" viewBox="0 0 4.2333332 4.2333332" version="1.1" id="svg8" inkscape:version="0.92.2 5c3e80d, 2017-08-06" sodipodi:docname="favicon.svg" inkscape:export-xdpi="96" inkscape:export-ydpi="96">
  <defs id="defs2">
    <linearGradient osb:paint="solid" id="linearGradient6073">
      <stop id="stop6075" offset="0" style="stop-color:#000000;stop-opacity:1;" />
    </linearGradient>
  </defs>
  <sodipodi:namedview id="base" pagecolor="#ffffff" bordercolor="#666666" borderopacity="1.0" inkscape:pageopacity="0.0" inkscape:pageshadow="2" inkscape:zoom="26.348315" inkscape:cx="9.7323785" inkscape:cy="5.1034509" inkscape:document-units="px" inkscape:current-layer="layer1" inkscape:document-rotation="0" showgrid="true" units="px" inkscape:showpageshadow="false" inkscape:snap-global="false" inkscape:snap-smooth-nodes="false" inkscape:object-paths="true" borderlayer="true">
    <inkscape:grid type="xygrid" id="grid1037" color="#ffffff" opacity="0.03921569" empcolor="#ffffff" empopacity="0.07843137" empspacing="1" />
  </sodipodi:namedview>
  <metadata id="metadata5">
    <rdf:RDF>
      <cc:Work rdf:about="">
        <dc:format>image/svg+xml</dc:format>
        <dc:type rdf:resource="http://purl.org/dc/dcmitype/StillImage" />
        <dc:title></dc:title>
      </cc:Work>
    </rdf:RDF>
  </metadata>
  <g inkscape:groupmode="layer" id="layer2" inkscape:label="BG">
    <rect style="color:#000000;overflow:visible;opacity:1;vector-effect:none;fill:#000000;fill-opacity:1.0;stroke:none;stroke-width:0.37041664;stroke-linecap:round;stroke-linejoin:round;stroke-miterlimit:4;stroke-dasharray:none;stroke-dashoffset:0;stroke-opacity:0.9938838;paint-order:fill markers stroke" id="rect1157" width="4.2333331" height="4.233346" x="0" y="0" />
  </g>
  <g inkscape:label="Layer 1" inkscape:groupmode="layer" id="layer1" transform="translate(0,-292.76667)">
    <path style="color:#000000;font-style:normal;font-variant:normal;font-weight:normal;font-stretch:normal;font-size:medium;line-height:normal;font-family:sans-serif;font-variant-ligatures:normal;font-variant-position:normal;font-variant-caps:normal;font-variant-numeric:normal;font-variant-alternates:normal;font-feature-settings:normal;text-indent:0;text-align:start;text-decoration:none;text-decoration-line:none;text-decoration-style:solid;text-decoration-color:#000000;letter-spacing:normal;word-spacing:normal;text-transform:none;writing-mode:lr-tb;direction:ltr;text-orientation:mixed;dominant-baseline:auto;baseline-shift:baseline;text-anchor:start;white-space:normal;shape-padding:0;clip-rule:nonzero;display:inline;overflow:visible;visibility:visible;opacity:1;isolation:auto;mix-blend-mode:normal;color-interpolation:sRGB;color-interpolation-filters:linearRGB;solid-color:#000000;solid-opacity:1;vector-effect:none;fill:#ffffff;fill-opacity:0.8;fill-rule:nonzero;stroke:none;stroke-width:1.20000005;stroke-linecap:round;stroke-linejoin:round;stroke-miterlimit:4;stroke-dasharray:none;stroke-dashoffset:0;stroke-opacity:1;paint-order:fill markers stroke;color-rendering:auto;image-rendering:auto;shape-rendering:auto;text-rendering:auto;enable-background:accumulate" d="M 5.5410156 2.8339844 A 0.60006 0.60006 0 0 0 5.484375 2.8378906 A 0.60006 0.60006 0 0 0 4.953125 3.4433594 C 4.953125 3.6750444 4.9384449 4.1231444 4.9375 4.5722656 C 4.9365869 5.0213869 4.9388593 5.4534115 5.0273438 5.8359375 A 0.60006 0.60006 0 1 0 6.1933594 5.5703125 C 6.162405 5.4365172 6.1339077 4.9939853 6.1347656 4.5722656 C 6.1356228 4.1505837 6.1484375 3.7242917 6.1484375 3.4433594 A 0.60006 0.60006 0 0 0 5.5410156 2.8339844 z M 3.4628906 2.9492188 A 0.60006 0.60006 0 0 0 3.3964844 2.9550781 L 3.3964844 2.9570312 A 0.60006 0.60006 0 0 0 2.8867188 3.5175781 C 2.8630438 3.8411057 2.833699 4.2426141 2.828125 4.6328125 C 2.8225502 5.0229731 2.8236891 5.381645 2.9296875 5.7382812 A 0.60032795 0.60032795 0 0 0 4.0820312 5.3984375 C 4.0543273 5.3050832 4.0185581 4.9880025 4.0234375 4.6464844 C 4.0283131 4.3048151 4.0585037 3.927031 4.0820312 3.6054688 A 0.60006 0.60006 0 0 0 3.4628906 2.9492188 z M 10.349609 3.0078125 C 10.120517 2.9813558 9.9138974 3.0005069 9.6992188 3.015625 C 9.2698621 3.0458612 8.7873884 3.0504011 8.7480469 3.0390625 C 8.4868664 2.9619601 8.1638253 3.0225792 7.9648438 3.1484375 C 7.765863 3.2746737 7.6536258 3.4265504 7.5585938 3.5625 C 7.3685326 3.834248 7.2375189 4.0931074 7.1230469 4.2265625 A 0.60006 0.60006 0 1 0 8.03125 5.0019531 C 8.2876569 4.7029925 8.4343294 4.4006264 8.5410156 4.2480469 C 8.576581 4.1970233 8.5785334 4.1977681 8.5859375 4.1894531 C 9.0258828 4.2692012 9.4408812 4.2374576 9.78125 4.2128906 C 9.9472166 4.201552 10.066897 4.2012986 10.142578 4.2050781 C 10.143441 4.2064766 10.14937 4.2091111 10.150391 4.2128906 C 10.16154 4.2317883 10.172186 4.2605937 10.195312 4.3085938 C 10.253094 4.4291607 10.328848 4.6117059 10.408203 4.8105469 C 10.487558 5.00935 10.570976 5.2239289 10.666016 5.4238281 C 10.679486 5.4521639 10.695815 5.4781084 10.708984 5.5058594 C 10.680031 5.5258985 10.652673 5.542351 10.623047 5.5625 C 10.24321 5.8210197 9.8704046 6.1050073 9.6484375 6.2636719 C 9.266486 6.5365538 9.0581122 6.9273506 8.9550781 7.296875 C 8.8520444 7.6665128 8.8301247 8.0167274 8.9765625 8.3828125 C 8.9805688 8.3941511 9.0553824 8.6319697 9.1386719 8.90625 C 9.2219613 9.1806437 9.3235944 9.5236407 9.4335938 9.8652344 C 9.5435893 10.206904 9.6642018 10.542746 9.78125 10.832031 C 9.8397722 10.976787 9.8937195 11.109259 9.9589844 11.230469 C 10.024249 11.351792 10.073158 11.464934 10.253906 11.607422 C 10.441273 11.755201 10.714942 11.909158 11.029297 11.960938 C 11.343652 12.013095 11.672591 12.005665 12.224609 11.976562 C 12.85448 11.942547 13.30946 11.76391 13.597656 11.490234 C 13.885853 11.216597 13.981973 10.958374 14.003906 10.929688 C 14.120051 10.77775 14.21714 10.645398 14.277344 10.566406 C 14.288267 10.551288 14.282587 10.548448 14.291016 10.537109 A 0.60006 0.60006 0 0 0 14.306641 10.521484 A 0.60006 0.60006 0 0 0 14.431641 10.388672 A 0.60006 0.60006 0 0 0 14.955078 10.117188 C 15.191412 9.7494395 15.221739 9.3755006 15.220703 8.9570312 C 15.219667 8.5385242 15.155701 8.0906834 15 7.6660156 A 0.60006 0.60006 0 0 0 14.904297 7.4960938 C 14.645462 7.1710905 14.345071 6.9384262 14.023438 6.8007812 C 14.019386 6.3428945 13.945776 5.9677235 13.775391 5.65625 C 13.602088 5.3395256 13.321401 5.1129968 13.042969 5.0078125 C 12.486104 4.7972928 11.984029 4.9430492 11.810547 4.96875 L 11.810547 4.9707031 C 11.802719 4.9719079 11.796801 4.9752678 11.789062 4.9765625 C 11.768075 4.9409263 11.774376 4.9533881 11.751953 4.90625 C 11.681476 4.7580925 11.602445 4.5651214 11.523438 4.3671875 C 11.44443 4.1691402 11.366494 3.9727353 11.279297 3.7910156 C 11.235696 3.700307 11.185896 3.6079088 11.125 3.5175781 C 11.067037 3.4317828 10.998395 3.3357931 10.822266 3.2382812 C 10.813346 3.2345017 10.816165 3.2264358 10.806641 3.2226562 C 10.777992 3.1999791 10.767727 3.1420712 10.740234 3.1269531 C 10.587148 3.0430476 10.464154 3.022994 10.349609 3.0097656 L 10.349609 3.0078125 z M 12.367188 6.1152344 C 12.478491 6.1085257 12.568054 6.1115204 12.615234 6.1289062 C 12.662414 6.1478039 12.674533 6.15154 12.71875 6.2324219 C 12.761093 6.3098773 12.820008 6.4887987 12.826172 6.796875 C 12.756085 6.8304631 12.686366 6.8647602 12.623047 6.9121094 C 12.587482 6.9385661 12.567885 6.9477114 12.482422 6.9726562 C 12.396959 6.9953334 12.236038 7.0089729 12.025391 7.1484375 C 11.814742 7.2879021 11.653527 7.5693407 11.603516 7.828125 C 11.553505 8.0870226 11.559774 8.3555896 11.597656 8.7285156 C 11.610544 8.8555078 11.545882 9.1543855 11.677734 9.5566406 C 11.743661 9.7577115 11.890813 9.9816436 12.105469 10.130859 C 12.320123 10.280151 12.576269 10.358877 12.859375 10.390625 C 12.881748 10.393126 12.89794 10.392262 12.919922 10.394531 C 12.876156 10.468654 12.798149 10.591859 12.771484 10.617188 C 12.721232 10.66481 12.624957 10.75473 12.166016 10.779297 C 11.633738 10.809533 11.340618 10.798195 11.220703 10.779297 C 11.126065 10.764383 11.107099 10.752239 11.042969 10.701172 C 11.035621 10.693394 11.025814 10.68472 11.013672 10.662109 C 10.98181 10.602771 10.937099 10.500292 10.888672 10.380859 C 10.791818 10.141615 10.683661 9.8238166 10.578125 9.4960938 C 10.472589 9.1684087 10.374709 8.8342347 10.291016 8.5585938 C 10.207322 8.2830662 10.156053 8.0979787 10.091797 7.9375 C 10.101737 7.9639567 10.067662 7.7765568 10.113281 7.6132812 C 10.158885 7.4496277 10.253821 7.3047376 10.349609 7.2363281 C 10.605381 7.053399 10.960132 6.7825797 11.300781 6.5507812 C 11.64143 6.3190962 12.038239 6.1524838 11.988281 6.1601562 C 12.123348 6.1393688 12.255884 6.121943 12.367188 6.1152344 z M 3.8144531 6.7109375 A 0.60006 0.60006 0 0 0 3.75 6.7128906 A 0.60006 0.60006 0 0 0 3.5351562 6.7734375 C 3.1369385 6.9624139 2.6654875 7.157357 2.265625 7.3476562 C 2.0656937 7.4429003 1.8894659 7.5375073 1.7265625 7.6425781 C 1.5636588 7.7480269 1.3595175 7.7983142 1.2558594 8.2128906 C 1.236066 8.2918828 1.1144405 8.7419059 1.0253906 9.2519531 C 0.9363408 9.7620382 0.84213391 10.324019 0.97460938 10.869141 A 0.60068498 0.60068498 0 0 0 2.140625 10.582031 C 2.105105 10.435764 2.1285603 9.9084836 2.2070312 9.4589844 C 2.2745423 9.0723009 2.3426885 8.8062817 2.3847656 8.640625 C 2.4663244 8.5884675 2.6086886 8.5167434 2.7832031 8.4335938 C 3.1399845 8.263893 3.6160354 8.064729 4.0527344 7.8574219 A 0.60006 0.60006 0 0 0 3.8144531 6.7109375 z M 5.2636719 7.28125 A 0.60006 0.60006 0 0 0 4.8203125 7.5253906 C 4.5837632 7.8372017 4.20102 8.3716414 3.8613281 8.8691406 C 3.6914822 9.1178335 3.5333789 9.3548527 3.4101562 9.5625 C 3.348545 9.666437 3.2932277 9.7629337 3.2480469 9.8574219 C 3.202866 9.9519101 3.1529545 10.01724 3.1367188 10.228516 C 3.1185959 10.46398 3.1557326 10.571562 3.1894531 10.78125 C 3.2231741 10.991014 3.2677592 11.23577 3.3222656 11.482422 C 3.3767717 11.728847 3.4342666 11.977939 3.4980469 12.191406 C 3.5618272 12.40495 3.5748887 12.537281 3.7578125 12.78125 A 0.60089199 0.60089199 0 0 0 4.7324219 12.078125 C 4.7744683 12.128841 4.6955048 11.994487 4.6503906 11.84375 C 4.5993708 11.672915 4.5459533 11.450209 4.4960938 11.224609 C 4.4462342 10.998972 4.3980389 10.76956 4.3691406 10.589844 C 4.3449516 10.439419 4.3451351 10.350745 4.3398438 10.361328 C 4.3608579 10.318619 4.39094 10.254017 4.4375 10.175781 C 4.538009 10.006458 4.6880988 9.7775385 4.8496094 9.5410156 C 5.1726343 9.0679321 5.5566434 8.5512928 5.7792969 8.2578125 A 0.60006 0.60006 0 0 0 5.2636719 7.2832031 L 5.2636719 7.28125 z M 13.345703 7.8710938 L 13.345703 7.8730469 C 13.347412 7.8717618 13.375252 7.8506232 13.486328 7.8808594 C 13.578998 7.9073161 13.730808 8.0276893 13.884766 8.1894531 C 13.958625 8.4317208 14.016958 8.71445 14.017578 8.9648438 C 14.017911 9.0993949 14.007254 9.1085734 13.988281 9.2011719 C 13.715067 9.2200695 13.495863 9.2496743 12.992188 9.1933594 C 12.863498 9.1782413 12.834088 9.1638091 12.822266 9.15625 C 12.817466 9.1222343 12.825382 8.9284805 12.792969 8.609375 C 12.765681 8.3406506 12.769104 8.2158621 12.777344 8.1367188 C 12.796015 8.1291597 12.77406 8.1363519 12.800781 8.1289062 C 12.930944 8.0948905 13.140761 8.0245426 13.345703 7.8710938 z M 6.4882812 8.1894531 A 0.60006 0.60006 0 0 0 5.9199219 8.6914062 C 5.8451099 9.1189086 5.7344115 9.8134155 5.6542969 10.457031 C 5.6142377 10.778669 5.5827074 11.085647 5.5664062 11.349609 C 5.5501165 11.61342 5.5146778 11.778094 5.6035156 12.080078 C 5.6042787 12.082648 5.6332171 12.152095 5.640625 12.167969 C 5.6480329 12.183087 5.648174 12.198906 5.6542969 12.212891 C 5.6665047 12.235568 5.6841422 12.258763 5.6992188 12.287109 C 5.7294172 12.34418 5.765185 12.414205 5.8105469 12.5 C 5.9012707 12.671591 6.0156423 12.897487 6.1269531 13.134766 A 0.60271328 0.60271328 0 1 0 7.21875 12.625 C 7.0949176 12.361189 6.9679357 12.119094 6.8730469 11.939453 C 6.8256025 11.8495 6.7887348 11.775633 6.7617188 11.724609 C 6.7579782 11.71705 6.7571188 11.718497 6.7539062 11.710938 C 6.7752984 11.76952 6.7492841 11.623324 6.7617188 11.421875 C 6.7754384 11.200017 6.8113984 10.910489 6.8496094 10.603516 C 6.926039 9.9894936 7.0302617 9.3059084 7.1015625 8.8984375 A 0.60006 0.60006 0 0 0 6.4882812 8.1894531 z M 8.4082031 9.5664062 A 0.60006 0.60006 0 0 0 8.3496094 9.5703125 A 0.60006 0.60006 0 0 0 7.8105469 10.109375 C 7.7658502 10.511555 7.8009237 11.039996 7.8613281 11.578125 C 7.8915266 11.847227 7.9343207 12.109343 7.9804688 12.337891 C 8.0266168 12.566552 8.0422461 12.727931 8.1855469 12.966797 A 0.60006 0.60006 0 1 0 9.2128906 12.353516 C 9.2622664 12.435909 9.1903347 12.279956 9.1542969 12.101562 C 9.1182402 11.923169 9.0838419 11.687656 9.0566406 11.445312 C 9.0022381 10.960664 8.9879331 10.403498 9.0058594 10.242188 A 0.60006 0.60006 0 0 0 8.4082031 9.5664062 z " transform="matrix(0.26458333,0,0,0.26458333,0,292.76667)" id="path1029" />
  </g>
</svg>
