<?xml version="1.0" encoding="UTF-8" standalone="no"?>
<!-- Created with Inkscape (http://www.inkscape.org/) -->

<svg
   xmlns:dc="http://purl.org/dc/elements/1.1/"
   xmlns:cc="http://creativecommons.org/ns#"
   xmlns:rdf="http://www.w3.org/1999/02/22-rdf-syntax-ns#"
   xmlns:svg="http://www.w3.org/2000/svg"
   xmlns="http://www.w3.org/2000/svg"
   xmlns:sodipodi="http://sodipodi.sourceforge.net/DTD/sodipodi-0.dtd"
   xmlns:inkscape="http://www.inkscape.org/namespaces/inkscape"
   width="75"
   height="75"
   viewBox="0 0 19.84375 19.843751"
   version="1.1"
   id="svg374"
   inkscape:version="0.92.2 5c3e80d, 2017-08-06"
   sodipodi:docname="hermes_book.svg"
   inkscape:export-xdpi="192"
   inkscape:export-ydpi="192">
  <defs
     id="defs368" />
  <sodipodi:namedview
     id="base"
     pagecolor="#848484"
     bordercolor="#666666"
     borderopacity="1.0"
     inkscape:pageopacity="0"
     inkscape:pageshadow="2"
     inkscape:zoom="3.9614768"
     inkscape:cx="38.95323"
     inkscape:cy="12.428797"
     inkscape:document-units="px"
     inkscape:current-layer="layer1"
     showgrid="false"
     inkscape:snap-global="false"
     inkscape:object-paths="true"
     inkscape:snap-smooth-nodes="true"
     units="px">
    <inkscape:grid
       type="xygrid"
       id="grid4946" />
  </sodipodi:namedview>
  <metadata
     id="metadata371">
    <rdf:RDF>
      <cc:Work
         rdf:about="">
        <dc:format>image/svg+xml</dc:format>
        <dc:type
           rdf:resource="http://purl.org/dc/dcmitype/StillImage" />
        <dc:title></dc:title>
      </cc:Work>
    </rdf:RDF>
  </metadata>
  <g
     inkscape:label="Layer 1"
     inkscape:groupmode="layer"
     id="layer1"
     transform="translate(0,-277.15624)">
    <path
       style="color:#000000;font-style:normal;font-variant:normal;font-weight:normal;font-stretch:normal;font-size:medium;line-height:normal;font-family:sans-serif;font-variant-ligatures:normal;font-variant-position:normal;font-variant-caps:normal;font-variant-numeric:normal;font-variant-alternates:normal;font-feature-settings:normal;text-indent:0;text-align:start;text-decoration:none;text-decoration-line:none;text-decoration-style:solid;text-decoration-color:#000000;letter-spacing:normal;word-spacing:normal;text-transform:none;writing-mode:lr-tb;direction:ltr;text-orientation:mixed;dominant-baseline:auto;baseline-shift:baseline;text-anchor:start;white-space:normal;shape-padding:0;clip-rule:nonzero;display:inline;overflow:visible;visibility:visible;opacity:1;isolation:auto;mix-blend-mode:normal;color-interpolation:sRGB;color-interpolation-filters:linearRGB;solid-color:#000000;solid-opacity:1;vector-effect:none;fill:#ffffff;fill-opacity:1;fill-rule:nonzero;stroke:none;stroke-width:2.64583373;stroke-linecap:butt;stroke-linejoin:miter;stroke-miterlimit:4;stroke-dasharray:none;stroke-dashoffset:0;stroke-opacity:1;marker:none;paint-order:fill markers stroke;color-rendering:auto;image-rendering:auto;shape-rendering:auto;text-rendering:auto;enable-background:accumulate"
       d="m 1.5580445,287.54475 -0.1452108,0.0398 c -0.2354048,0.17168 -0.47174915,0.53081 -0.58601076,0.84543 -0.19223911,0.52934 -0.18893809,1.15207 0,1.68259 0.13406612,0.37644 0.36896976,0.61495 0.36896976,0.61495 l 6.0823161,6.26576 0.010335,0.005 c 0.048094,0.0592 0.1074883,0.11848 0.1839682,0.17829 0.1107895,0.0866 0.3920308,0.31737 0.620634,0.23771 l 0.00465,0.002 c 0.1910339,-0.0383 0.138226,-0.14123 0.3100586,-0.17519 0.1718323,-0.034 0.1278001,0.0824 0.3493326,0.0367 l 1.9140948,-0.3886 -0.156579,-0.5116 c -0.6133606,0.1255 -1.8016274,0.36873 -1.8913577,0.38706 -0.1097584,0.0224 -0.094286,-0.0665 -0.2480469,-0.0289 -0.1169421,0.0286 -0.1252286,0.0716 -0.1689819,0.10025 -0.1189181,-0.0201 -0.2495905,-0.0833 -0.3648356,-0.1912 l -0.060461,-0.062 c -0.073645,-0.0839 -0.1374437,-0.18789 -0.1829345,-0.31315 -0.1491629,-0.41073 -0.1253911,-0.94526 0.023771,-1.35599 0.1235435,-0.34017 0.2294623,-0.5181 0.4459676,-0.57516 0.1331151,-0.007 0.1399734,0.0771 0.2924885,0.047 0.1718323,-0.034 0.1022818,-0.17908 0.3038575,-0.22066 l 0.3043741,-0.1049 c -0.285287,-0.18056 -0.8423257,-0.12351 -0.8423257,-0.12351 l -5.826518,-5.85855 z m 0.3570841,0.55553 0.839742,0.86454 c -0.2289478,0.17672 -0.4642851,0.51585 -0.5751586,0.82114 -0.1002154,0.27595 -0.1479302,0.57745 -0.1436605,0.87798 l -0.2542481,-0.262 c 0,0 -0.285565,-0.29863 -0.3632853,-0.51263 -0.1184312,-0.3261 -0.1365667,-0.66547 -0.065629,-1.02526 0.018088,-0.0917 0.1308367,-0.61349 0.5622395,-0.76377 z m 1.2531534,1.29087 0.2284101,0.23513 c -0.2255092,0.17893 -0.4551805,0.51187 -0.5643068,0.81235 -0.077342,0.21296 -0.1228664,0.44159 -0.137976,0.67283 -0.083155,-0.37554 -0.047562,-0.81301 0.079065,-1.16169 0.1134044,-0.31226 0.2119805,-0.48771 0.3948077,-0.55862 z m 0.6387209,0.65784 2.0670573,2.12907 c -0.2304285,0.17567 -0.4686882,0.51736 -0.5803265,0.82476 -0.0993,0.27342 -0.1469459,0.5719 -0.1436603,0.86971 l -1.6453776,-1.6955 c -0.037846,-0.0646 -0.072641,-0.1374 -0.1023194,-0.21911 -0.1491639,-0.41073 -0.1253927,-0.94475 0.023771,-1.35547 0.1105334,-0.30436 0.2067645,-0.47914 0.3808555,-0.55346 z m 14.8016811,2.06293 -0.828373,0.17105 c -0.03995,0.081 -0.09915,0.21157 -0.128158,0.29145 -0.192239,0.52933 -0.192239,1.15274 0,1.68207 0.07581,0.20873 0.203833,0.41428 0.360185,0.58653 -0.252533,0.0516 -3.101164,0.63447 -5.71283,1.16892 l 0.07493,0.53175 6.877616,-1.39578 -0.405143,-0.44959 c 4e-5,-9e-5 0.0016,-0.003 0.0016,-0.003 -0.0014,0 -0.0032,-3.3e-4 -0.0047,-5.2e-4 l -0.663008,-0.73535 c -0.101324,-0.38828 -0.06835,-0.85414 0.06511,-1.22163 0.09605,-0.26448 0.235242,-0.49881 0.362769,-0.6258 z m -12.3196621,0.49351 1.2975953,1.33687 c -0.2237489,0.17995 -0.4508958,0.51017 -0.559139,0.80822 -0.103687,0.2855 -0.1507889,0.59867 -0.1426271,0.9095 l -0.9529133,-1.00562 c -0.024593,-0.0482 -0.047734,-0.0997 -0.068213,-0.15607 -0.1491639,-0.41073 -0.1248756,-0.92098 0.024288,-1.3317 0.1146648,-0.31573 0.2142363,-0.49186 0.4010091,-0.5612 z m 5.3469611,3.54242 c -0.203626,0.0417 -0.295931,0.0606 -0.482142,0.0987 l -0.09767,0.5643 0.859379,-0.17414 z"
       id="path1014"
       inkscape:connector-curvature="0" />
    <path
       style="display:inline;fill:#ffffff;fill-opacity:1;stroke:none;stroke-width:0.00356352"
       d="m 8.8504648,284.83503 c -0.2002954,-5.6e-4 -0.2927878,0.009 -0.4117004,0.0332 -0.1054085,0.0218 -0.1744986,0.0456 -0.288209,0.0991 -0.081321,0.0376 -0.1927582,0.0749 -0.5368522,0.17708 l -0.2025297,0.0603 -0.00655,-0.006 c -1.263e-4,-1.3e-4 -2.533e-4,-2.5e-4 -3.8e-4,-3.8e-4 -0.042001,-0.0358 -0.085804,-0.0615 -0.1352965,-0.076 -0.082411,-0.0242 -0.1799025,-0.032 -0.2777871,-0.0268 -2.352e-4,0 -4.886e-4,0 -7.239e-4,0 -0.064045,0.004 -0.1457628,0.0185 -0.232135,0.037 -0.00421,3.3e-4 -0.0084,9.1e-4 -0.012543,0.002 -0.1530924,0.0334 -0.3096079,0.0757 -0.4029386,0.12266 -0.043872,0.0217 -0.082076,0.0515 -0.1080904,0.0934 -0.026104,0.0421 -0.03586,0.0983 -0.022595,0.14821 0.014141,0.0538 0.047701,0.10639 0.1007116,0.16066 0.053145,0.0544 0.128721,0.11814 0.2481822,0.21406 l 0.00452,0.003 0.028222,-0.0505 0.00249,-0.004 c -0.017556,0.0282 -0.016242,0.0356 -0.020566,0.0509 -0.00432,0.0153 -0.00859,0.0327 -0.012912,0.0523 -0.00865,0.0391 -0.017759,0.0867 -0.026193,0.13558 -0.00843,0.0488 -0.016069,0.0985 -0.021581,0.1411 -0.00125,0.01 -6.515e-4,0.0156 -0.00176,0.0241 -0.00348,-7e-4 -0.00581,-10e-4 -0.00941,-0.002 -0.058481,-0.0117 -0.1314183,-0.0237 -0.2035442,-0.0328 -2.353e-4,0 -4.886e-4,0 -7.239e-4,0 -0.083908,-0.01 -0.1763789,-0.028 -0.192016,-0.0327 -0.177253,-0.0536 -0.3280026,-0.16663 -0.4211077,-0.3144 2e-7,-1.3e-4 2e-7,-2.5e-4 0,-3.8e-4 -0.010355,-0.0163 -0.016519,-0.0241 -0.022873,-0.0327 -0.023937,-0.0537 -0.077352,-0.0948 -0.1326219,-0.11537 -0.1009989,-0.0492 -0.2305559,-0.0665 -0.3910414,-0.0631 h -3.8e-4 c -0.066609,0.001 -0.1139695,0.008 -0.2174708,0.0286 -2.352e-4,0 -4.886e-4,0 -7.239e-4,0 -0.1198437,0.0248 -0.1525107,0.0364 -0.2171942,0.0725 -2.172e-4,0 -4.162e-4,0 -6.334e-4,0 -0.052739,0.0298 -0.096633,0.0647 -0.1300398,0.10837 -1.267e-4,0 -2.534e-4,0 -3.801e-4,0 -0.066703,0.0875 -0.070128,0.19683 -0.048419,0.29808 0.021709,0.10125 0.07212,0.2005 0.156878,0.27077 9.63e-5,1.3e-4 1.99e-4,2.6e-4 2.895e-4,3.8e-4 0.078006,0.0642 0.1978515,0.11945 0.3667854,0.1851 0.1689352,0.0657 0.3835951,0.13651 0.6319384,0.20807 0.1581105,0.0454 0.1807184,0.0497 0.3157846,0.0572 0.1371504,0.008 0.2012626,0.004 0.3140322,-0.0171 1.267e-4,0 2.534e-4,0 3.801e-4,0 l 0.032095,-0.006 0.1770753,0.0457 c 2.352e-4,1.2e-4 4.886e-4,2.5e-4 7.239e-4,3.8e-4 0.020006,0.005 0.024186,0.007 0.0439,0.0119 -0.2383283,0.12386 -0.5152326,0.26885 -0.6138619,0.33599 -2.352e-4,1.2e-4 -4.886e-4,2.5e-4 -7.238e-4,3.8e-4 -0.04686,0.0323 -0.086844,0.0654 -0.1185112,0.0993 -0.031404,0.0336 -0.064539,0.0586 -0.065481,0.13354 -2.533e-4,0.0183 0.00437,0.0453 0.013558,0.0641 0.00959,0.0196 0.020189,0.0333 0.033109,0.0488 0.025841,0.0311 0.064004,0.0702 0.132161,0.14046 0.2053538,0.21154 0.304271,0.28808 0.5353765,0.41068 0.086965,0.0463 0.3430811,0.17169 0.4556005,0.22273 0.035614,0.0164 0.056587,0.0183 0.095178,0.0265 0.038591,0.008 0.085944,0.0171 0.1379717,0.0258 0.1040546,0.0175 0.225535,0.0346 0.3235314,0.0446 0.1299078,0.0132 0.3049113,0.0265 0.4622404,0.036 0.1568706,0.009 0.2893725,0.0154 0.3565489,0.0132 0.012829,-3.2e-4 0.0068,-6.5e-4 0.01116,7.3e-4 0.00436,0.001 0.020786,0.008 0.051924,0.0244 0.1945412,0.0999 0.3056997,0.13367 0.4503436,0.13428 0.036778,8e-5 0.4462608,0.006 0.8937696,0.0132 1.266e-4,0 2.533e-4,0 3.8e-4,0 0.4361484,0.006 0.6529704,0.01 0.7737814,0.007 0.06041,-0.002 0.09738,-0.004 0.131793,-0.0118 0.03441,-0.008 0.06513,-0.0272 0.07839,-0.0363 l -0.0024,0.002 -0.0094,0.006 0.02232,0.005 c 1.81e-4,0 5.43e-4,0 7.24e-4,0 0.04387,0.01 0.09701,0.0177 0.13871,0.0199 1.81e-4,0 5.42e-4,0 7.23e-4,0 0.145207,0.006 0.601873,-0.0262 0.789094,-0.0523 1.21e-4,0 1.81e-4,0 3.62e-4,0 0.119475,-0.0171 0.197726,-0.0335 0.341238,-0.0701 0.341266,-0.0877 0.554885,-0.18413 0.710056,-0.33636 l 7.24e-4,-7.2e-4 c 0.01754,-0.0168 0.0306,-0.0252 0.06244,-0.0376 1.21e-4,0 1.81e-4,0 3.62e-4,0 0.228817,-0.0895 0.494806,-0.25833 0.664032,-0.42415 1.22e-4,-1.3e-4 1.81e-4,-2.5e-4 3.62e-4,-3.8e-4 0.09247,-0.0914 0.150176,-0.17546 0.178182,-0.26672 0.0011,-4.2e-4 0.0016,-5.8e-4 0.0028,-10e-4 0.01726,-0.007 0.04048,-0.0165 0.06834,-0.0279 0.05571,-0.0228 0.129943,-0.0533 0.209446,-0.0865 1.21e-4,-1.3e-4 1.81e-4,-2.6e-4 3.62e-4,-3.8e-4 0.158061,-0.0666 0.33072,-0.13706 0.378589,-0.15578 l 0.0011,-3.8e-4 c 0.157762,-0.0603 0.247097,-0.11438 0.315785,-0.19764 0.04488,-0.0544 0.08347,-0.1212 0.07535,-0.19764 -0.0081,-0.0763 -0.04878,-0.13158 -0.102831,-0.19976 l -3.62e-4,-2.9e-4 c -0.0302,-0.0384 -0.04014,-0.0549 -0.04464,-0.0617 0.02553,-0.0586 0.02906,-0.12213 0.01707,-0.18971 0.01746,-0.0102 0.03895,-0.0223 0.06142,-0.0341 l 7.24e-4,-3.8e-4 c 0.06489,-0.0335 0.11847,-0.0652 0.161118,-0.0962 0.04269,-0.031 0.07757,-0.0537 0.100712,-0.11224 0.02852,-0.0715 0.009,-0.16012 -0.03735,-0.22549 -0.04649,-0.0656 -0.115424,-0.12642 -0.214336,-0.20253 -1.81e-4,-1.3e-4 -5.43e-4,-2.6e-4 -7.24e-4,-3.8e-4 -0.01896,-0.0144 -0.03285,-0.0261 -0.04879,-0.039 0.0013,-0.001 0.0018,-0.002 0.0031,-0.004 0.0225,-0.0234 0.0434,-0.0476 0.06068,-0.0704 0.01728,-0.0227 0.02941,-0.034 0.04316,-0.0718 1.21e-4,-2.4e-4 1.81e-4,-4.9e-4 3.62e-4,-7.3e-4 0.02135,-0.0604 0.01124,-0.12969 -0.02084,-0.18085 -0.03208,-0.0512 -0.08148,-0.0871 -0.1388,-0.10985 -1.21e-4,0 -1.81e-4,0 -3.62e-4,0 -0.122742,-0.0481 -0.310336,-0.0753 -0.444347,-0.0662 -0.04494,0.003 -0.122359,0.015 -0.206773,0.0293 -0.195611,0.0325 -0.269214,0.0397 -0.345023,0.0366 -0.04265,-0.002 -0.09532,-0.001 -0.13216,0.002 -0.0041,2.9e-4 -0.108932,-10e-4 -0.192753,-0.007 -1.21e-4,0 -1.81e-4,0 -3.62e-4,0 -0.04298,-0.003 -0.08339,-0.006 -0.114638,-0.007 -0.01562,-8.2e-4 -0.0287,-0.001 -0.03938,-0.002 -0.0053,-1.6e-4 -0.01022,-3.8e-4 -0.01502,-3.8e-4 -0.0025,10e-6 -0.0033,-6e-4 -0.0065,-5.6e-4 1.79e-4,3.1e-4 -7.24e-4,9.2e-4 -9.05e-4,9.2e-4 -1.79e-4,0 -0.0022,-1e-4 -0.0037,-1.7e-4 -0.0032,3e-4 -0.006,3.8e-4 -0.01484,0.002 0.0098,-0.002 0.01162,-0.002 0.01421,-0.002 -9.05e-4,-5e-5 -9.05e-4,-2e-5 -0.002,-9e-5 -0.0067,-4.3e-4 -0.01746,-10e-4 -0.03034,-0.002 -0.02575,-0.002 -0.06064,-0.006 -0.09831,-0.01 l 0.0011,3.8e-4 c -0.07827,-0.009 -0.152545,-0.0154 -0.198011,-0.0147 h -3.62e-4 c -0.08344,6.3e-4 -0.167442,0.0191 -0.240897,0.053 -1.81e-4,0 -5.43e-4,0 -7.24e-4,0 -0.0054,0.003 -0.0088,0.004 -0.01364,0.006 -0.119642,-0.0355 -0.246699,-0.0721 -0.306007,-0.0864 h -7.24e-4 c -0.0181,-0.005 -0.03589,-0.01 -0.04814,-0.0136 -0.0023,-7.3e-4 -0.0028,-9.6e-4 -0.0046,-0.002 -0.01893,-0.015 -0.03156,-0.017 -0.04593,-0.0224 -0.01843,-0.007 -0.03769,-0.0125 -0.0582,-0.0174 -0.041,-0.01 -0.08516,-0.0175 -0.128287,-0.0182 -0.08838,-10e-4 -0.159908,0.0145 -0.290331,0.0631 l -0.08014,0.03 -0.127274,-0.0219 h -3.62e-4 c -0.14645,-0.0258 -0.142438,-0.0247 -0.306748,-0.0864 -0.203718,-0.0763 -0.266224,-0.0939 -0.444072,-0.12303 -0.325002,-0.0533 -0.5954724,-0.0695 -1.4734143,-0.0889 h -9.21e-5 c -0.095704,-0.002 -0.174408,-0.003 -0.241173,-0.004 z m 4.1385842,0.35747 c 3.62e-4,2e-5 3.62e-4,8e-5 7.24e-4,9e-5 0.0011,-9e-5 0.0038,-7.2e-4 0.0045,-7.2e-4 -1.17e-4,-1.7e-4 -0.0036,5.1e-4 -0.0052,6.5e-4 z m -4.1248426,0.0645 c 0.026611,-2.9e-4 0.052164,-4e-5 0.073689,10e-4 h 9.22e-5 c 0.043251,0.002 0.2473564,0.007 0.4715555,0.0125 0.5581332,0.0137 0.7804309,0.0299 0.9934659,0.069 0.07515,0.0144 0.111607,0.0255 0.210555,0.0638 v -3.8e-4 c 0.02849,0.0111 0.04454,0.0131 0.07074,0.0227 -0.11086,0.0322 -0.221097,0.0625 -0.286178,0.0944 -1.21e-4,1.3e-4 -1.81e-4,2.5e-4 -3.62e-4,3.8e-4 -0.18183,0.0899 -0.308028,0.21873 -0.440937,0.44407 -1.271e-4,1.3e-4 -2.534e-4,2.6e-4 -3.801e-4,3.8e-4 -0.095266,0.16333 -0.1548943,0.27705 -0.1488538,0.39667 1.214e-4,5.8e-4 2.533e-4,0.001 3.8e-4,0.002 0.00623,0.0903 0.052026,0.17435 0.1328067,0.2231 1.477e-4,9e-5 2.172e-4,2.9e-4 3.801e-4,3.8e-4 0.040578,0.0251 0.089637,0.0442 0.1607511,0.0729 0.07193,0.029 0.157518,0.0612 0.237298,0.0888 1.19e-4,1.2e-4 1.81e-4,2.5e-4 3.62e-4,3.8e-4 0.0518,0.0177 0.08528,0.0434 0.122016,0.0593 -0.118529,-0.005 -0.24382,-0.0152 -0.9539923,-0.0848 l -0.5601855,-0.0551 -0.041133,-0.046 c -1.259e-4,-2.2e-4 -2.533e-4,-4.2e-4 -3.8e-4,-6.3e-4 -0.091893,-0.1023 -0.2071523,-0.19108 -0.3328461,-0.25519 l -3.8e-4,-3.8e-4 c -0.070265,-0.0363 -0.061878,-0.0302 -0.1380636,-0.10597 -2.353e-4,-2.2e-4 -4.886e-4,-4.4e-4 -7.239e-4,-6.5e-4 -0.021233,-0.0207 -0.025395,-0.0285 -0.039012,-0.0439 0.00892,-0.0166 0.00698,-0.0387 0.01042,-0.0583 0.00684,-0.007 0.014308,-0.014 0.020567,-0.0212 0.012896,-0.015 0.024559,-0.0225 0.037721,-0.0596 0.00964,-0.0267 0.010321,-0.0646 -0.00176,-0.0942 -0.012111,-0.0297 -0.031296,-0.0488 -0.049157,-0.0627 -0.035721,-0.0278 -0.072833,-0.0423 -0.1220159,-0.0597 -1.267e-4,0 -2.534e-4,0 -3.8e-4,0 -0.1593665,-0.0554 -0.3761036,-0.16936 -0.5134263,-0.27115 -1.263e-4,-1.2e-4 -2.534e-4,-2.5e-4 -3.801e-4,-3.8e-4 -0.00513,-0.004 -0.010346,-0.009 -0.015679,-0.0133 0.034225,-0.0103 0.063413,-0.0194 0.1034788,-0.0314 0.4051494,-0.11929 0.575949,-0.17462 0.6964967,-0.23001 0.04955,-0.0228 0.1235424,-0.0479 0.1192492,-0.047 0.015424,-0.003 0.1043433,-0.009 0.1841768,-0.01 z m -1.9176719,0.10781 c -0.067295,0.10707 0.050675,0.28023 0.2066805,0.38247 0.077732,0.0499 0.2665715,0.13039 0.245692,0.18113 -0.022414,0.0255 -0.1016111,0.0265 -0.1642556,0.0414 -0.044346,-0.0264 -0.062966,-0.0453 -0.086048,-0.0753 -0.06704,-0.0842 -0.2925666,-0.1972 -0.3755478,-0.29568 -0.089142,-0.0752 -0.1395557,-0.13549 -0.1245984,-0.14913 0.015973,-0.0154 0.1838157,-0.0606 0.2980771,-0.0849 z m 4.9020375,0.16961 0.120542,0.0345 c -5.43e-4,5.1e-4 -9.05e-4,8.9e-4 -0.0014,0.001 -1.21e-4,0 -1.81e-4,0 -3.62e-4,0 -0.243302,0.20801 -0.395003,0.35491 -0.476812,0.48945 -0.04091,0.0673 -0.06545,0.13579 -0.06105,0.20668 0.0044,0.0709 0.04023,0.13436 0.08715,0.1827 0.05424,0.0559 0.111495,0.0893 0.222729,0.13133 1.2e-4,1.3e-4 1.81e-4,2.6e-4 3.62e-4,3.8e-4 0.23705,0.0889 0.580399,0.13709 0.962756,0.14222 0.132361,0.002 0.23856,-0.0124 0.349999,-0.0233 -0.247801,0.0555 -0.474683,0.0943 -0.684231,0.10422 -0.332548,0.0152 -0.619495,2.2e-4 -0.843965,-0.0425 h -3.62e-4 c -0.130018,-0.0249 -0.180214,-0.0443 -0.289318,-0.11085 l -3.62e-4,-3.8e-4 c -0.213567,-0.13161 -0.257584,-0.15587 -0.328697,-0.1875 h -3.62e-4 c -0.04745,-0.0213 -0.135326,-0.0554 -0.209171,-0.0809 -0.0692,-0.0239 -0.161134,-0.0577 -0.193122,-0.0711 -1.81e-4,-1.3e-4 -5.43e-4,-2.5e-4 -7.24e-4,-3.8e-4 -0.0027,-0.001 -0.0024,-9.8e-4 -0.0048,-0.002 7.24e-4,-0.002 5.43e-4,-0.002 0.0014,-0.005 0.01241,-0.035 0.159058,-0.29563 0.193491,-0.33912 0.03296,-0.0407 0.109085,-0.0978 0.165917,-0.12063 1.81e-4,-1.3e-4 5.43e-4,-2.5e-4 7.24e-4,-3.8e-4 0.01207,-0.005 0.145494,-0.0465 0.258695,-0.0766 1.22e-4,0 1.81e-4,0 3.62e-4,0 0.25835,-0.0697 0.323214,-0.091 0.506787,-0.16841 0.101887,-0.0429 0.125371,-0.0513 0.148208,-0.0554 h -0.0018 c 0.0098,-0.002 0.01944,-0.003 0.03246,-0.004 z m 0.925128,0.0658 c 0.02042,0.003 0.06817,0.005 0.05155,0.005 0.0032,3.6e-4 0.0055,3.8e-4 0.0087,7.3e-4 -0.01384,0.0323 -0.02677,0.0654 -0.02822,0.10283 0,2.2e-4 0,4.3e-4 0,6.5e-4 -7.24e-4,0.0239 0.0011,0.056 0.01365,0.0858 0.01245,0.0298 0.02944,0.0502 0.04777,0.0715 0.03609,0.0418 0.07744,0.0726 0.135204,0.0993 0.184708,0.0858 0.47129,0.13591 0.695758,0.12515 0.119074,-0.006 0.240872,-0.0473 0.347142,-0.0948 -0.165951,0.073 -0.3389,0.1353 -0.613123,0.20142 -0.394417,0.0946 -0.502615,0.10882 -0.783559,0.10108 -0.221481,-0.006 -0.431176,-0.0476 -0.520435,-0.0815 0.0082,-0.0126 0.02037,-0.0294 0.04842,-0.0635 0.08256,-0.10007 0.120608,-0.13598 0.359039,-0.33985 0.08219,-0.0699 0.172457,-0.15043 0.21129,-0.18824 l 7.24e-4,-3.8e-4 z m -7.7042573,0.30204 c -1.785e-4,0.006 -0.00189,0.0106 -0.00101,0.0165 0.00885,0.0676 0.052319,0.1566 0.1244136,0.23481 0.035023,0.056 0.1170432,0.0962 0.1688672,0.14747 0.044914,0.0362 0.1144634,0.0653 0.1613049,0.10117 0.044396,0.0305 0.044762,0.0322 0.032464,0.0528 -0.00248,0.004 -0.00354,0.0109 -0.0047,0.0172 -0.1885923,-0.0631 -0.3494973,-0.12374 -0.4352182,-0.16629 -0.1112725,-0.0551 -0.1657778,-0.15548 -0.1569703,-0.28756 0.00428,-0.0648 0.00777,-0.0723 0.042978,-0.0914 0.019384,-0.0105 0.042777,-0.0183 0.067879,-0.0247 z m 2.1207551,0.38818 c 0.025301,0.0114 0.043264,0.0193 0.079499,0.0362 0.057739,0.027 0.1140168,0.052 0.1592759,0.0711 0.02263,0.01 0.042558,0.0178 0.058933,0.0241 0.016374,0.006 0.023394,0.0102 0.045283,0.0149 8.325e-4,1.3e-4 0.00167,2.7e-4 0.00249,3.8e-4 0.059012,0.0114 0.1181073,0.0133 0.1743082,0.004 0.00457,-1.2e-4 0.010592,-1.6e-4 0.016695,-3.8e-4 0.00361,9.2e-4 0.021734,0.006 0.073228,0.0265 0.1706566,0.0682 0.2587964,0.10409 0.3105275,0.12939 0.01039,0.005 0.01558,0.0113 0.023702,0.0157 -0.038864,5.5e-4 -0.060412,-0.003 -0.1122398,-3.8e-4 h -3.801e-4 c -0.1024995,0.004 -0.2201687,0.006 -0.2425567,0.005 -0.038303,-0.002 -0.1003136,-0.004 -0.1418448,-0.005 -0.040427,-10e-4 -0.099307,-0.004 -0.1290253,-0.005 h -0.00176 c -0.044415,-0.003 -0.1036156,-1.4e-4 -0.1533729,0.003 -1.267e-4,0 -2.534e-4,0 -3.801e-4,0 -0.014747,10e-4 -0.01915,9.6e-4 -0.028867,10e-4 -0.013734,-0.0212 -0.0313,-0.0485 -0.049526,-0.0784 -2.353e-4,-2.3e-4 -4.886e-4,-4.9e-4 -7.239e-4,-7.2e-4 -0.069924,-0.1125 -0.076724,-0.12909 -0.085033,-0.19027 9.45e-5,-5.8e-4 0.00128,-0.0296 0.00176,-0.0513 z m 0.9557461,0.73994 c 0.0113,-3.6e-4 0.026161,-3.5e-4 0.047866,4.7e-4 0.059348,0.002 0.1403487,0.008 0.241173,0.0167 0.07583,0.007 0.133124,0.0127 0.1704349,0.0174 0.00777,9.8e-4 0.010446,0.002 0.016418,0.002 0.00208,0.003 0.00321,0.005 0.00553,0.009 0.015683,0.0246 0.036645,0.0578 0.058933,0.0931 1.426e-4,2.4e-4 2.352e-4,5.1e-4 3.8e-4,7.2e-4 9.72e-5,1.6e-4 2.715e-4,2.2e-4 3.801e-4,3.8e-4 0.2360609,0.3849 0.4969422,0.71774 0.7128206,0.89995 0.067466,0.058 0.1040185,0.0799 0.26838,0.159 1.263e-4,1.3e-4 2.533e-4,2.6e-4 3.8e-4,3.8e-4 0.080642,0.0387 0.129801,0.0578 0.1958899,0.0882 -0.092657,-10e-4 -0.1677821,-0.002 -0.2746515,-0.004 -0.4395628,-0.007 -0.6317515,-0.008 -0.7237038,-0.0178 -0.045976,-0.005 -0.062838,-0.01 -0.085033,-0.0195 -0.022109,-0.01 -0.05328,-0.028 -0.1066145,-0.0551 l -3.8e-4,-3.8e-4 c -0.1322584,-0.0676 -0.3600751,-0.19484 -0.5539142,-0.30712 -0.096992,-0.0562 -0.1855976,-0.10858 -0.2499346,-0.14811 -0.028156,-0.0173 -0.04905,-0.0308 -0.06585,-0.0419 0.00282,-0.003 5.791e-4,-0.0197 0.01079,-0.0641 0.013052,-0.0566 0.036594,-0.12883 0.066957,-0.19903 0.032311,-0.0745 0.095555,-0.19423 0.1522664,-0.29245 0.028355,-0.0491 0.055229,-0.0936 0.075349,-0.12377 0.00407,-0.006 0.00601,-0.008 0.00941,-0.0129 0.00769,-4.3e-4 0.015446,-10e-4 0.026746,-10e-4 z m -0.7050738,0.002 c 0.031337,-3e-4 0.068352,-2.5e-4 0.1031097,1.8e-4 -0.088083,0.15126 -0.1648041,0.29467 -0.2090783,0.41447 -0.051148,0.1384 -0.076423,0.2547 -0.054045,0.36116 2.32e-5,1.1e-4 -2.3e-5,2.5e-4 0,3.8e-4 0.0092,0.0448 0.029449,0.0814 0.05469,0.11325 0.024948,0.0315 0.053919,0.0595 0.099236,0.0765 -0.010134,-0.004 -0.00451,-0.002 -9.229e-4,9e-5 0.00389,0.002 0.010219,0.005 0.017799,0.009 0.015158,0.008 0.03654,0.0204 0.062068,0.0349 0.027973,0.0158 0.068539,0.0396 0.1045856,0.0603 -0.083364,-0.008 -0.1760095,-0.0198 -0.2516871,-0.0314 -0.039303,-0.006 -0.074279,-0.012 -0.100066,-0.0171 -0.02401,-0.005 -0.04441,-0.0117 -0.035876,-0.008 -0.1115494,-0.0504 -0.3524041,-0.16777 -0.417603,-0.20289 -1.263e-4,-1.3e-4 -2.533e-4,-2.6e-4 -3.8e-4,-3.8e-4 -0.1861672,-0.0999 -0.195097,-0.10662 -0.3757319,-0.28581 l -0.080514,-0.0795 c 0.039309,-0.0262 0.071856,-0.0495 0.1467329,-0.0921 0.1100785,-0.0626 0.2515789,-0.13804 0.4095794,-0.21848 2e-7,-1.3e-4 2e-7,-2.6e-4 0,-3.8e-4 0.1047369,-0.0535 0.2003935,-0.10344 0.223742,-0.11612 0.015659,-0.008 0.00778,-0.005 0.010143,-0.005 0.00308,-4.9e-4 0.020795,-0.002 0.060317,-0.003 0.047966,-10e-4 0.119331,-0.005 0.1645323,-0.009 2.172e-4,0 4.344e-4,0 6.515e-4,0 0.011743,-9.6e-4 0.037373,-0.002 0.068709,-0.002 z m 5.7510789,0.086 c -0.09109,0.0348 -0.199434,0.0815 -0.259343,0.10108 -0.05486,0.0178 -0.209882,0.0647 -0.340225,0.10145 -1.21e-4,0 -1.81e-4,0 -3.62e-4,0 -0.243608,0.0695 -0.337283,0.0901 -0.392425,0.0938 -0.01243,7.6e-4 -0.0085,8.5e-4 -0.01328,-3.8e-4 -0.0048,-0.001 -0.02027,-0.007 -0.04952,-0.0195 -0.161586,-0.0706 -0.207928,-0.10031 -0.292452,-0.17532 0.07223,0.004 0.139487,0.0115 0.200133,0.0122 0.43709,0.004 0.752347,-0.0316 1.147484,-0.11325 z m -3.9493362,0.007 c 0.074633,0.007 0.1553542,0.0152 0.2446776,0.0241 0.1119669,0.011 0.2244218,0.022 0.3102513,0.0306 0.042915,0.004 0.079317,0.008 0.1053231,0.0108 0.00355,3.8e-4 0.00514,7.6e-4 0.0083,0.001 0.00264,0.003 0.00398,0.004 0.00701,0.008 0.018912,0.0216 0.044792,0.0527 0.072122,0.0861 0.1610892,0.19802 0.3108452,0.36888 0.4378002,0.50088 0.126925,0.13197 0.224769,0.22353 0.311264,0.27226 0.08087,0.0456 0.190037,0.0663 0.352769,0.0923 0.162643,0.026 0.370947,0.0492 0.611464,0.0676 0.0098,7.8e-4 0.01768,9.7e-4 0.02785,0.002 -0.04591,0.0113 -0.0996,0.0246 -0.111873,0.0268 -3.62e-4,0 -7.24e-4,0 -0.0011,0 -0.09976,0.0196 -0.321494,0.0407 -0.583151,0.0537 l -0.136956,0.007 -0.06105,-0.0174 -7.24e-4,-3.8e-4 c -0.158305,-0.0467 -0.357255,-0.12484 -0.630924,-0.25058 -0.2477779,-0.11346 -0.3348565,-0.1607 -0.3844004,-0.19838 v 3.8e-4 c -0.022201,-0.017 -0.092835,-0.0857 -0.1613971,-0.16038 -0.068561,-0.0747 -0.1405761,-0.15929 -0.1854678,-0.21959 -1.264e-4,-1.3e-4 -2.534e-4,-2.5e-4 -3.801e-4,-3.8e-4 -0.053607,-0.0717 -0.1408925,-0.19866 -0.2125827,-0.30675 -0.00753,-0.0113 -0.011667,-0.0183 -0.018814,-0.0292 z m 1.3385792,0.11814 c 0.08382,0.005 0.287988,0.0206 0.324084,0.0262 1.22e-4,10e-6 1.81e-4,10e-6 3.62e-4,0 0.02365,0.004 0.152467,0.05 0.223466,0.0892 7.8e-5,4e-5 3.62e-4,-5e-5 3.62e-4,0 1.34e-4,7e-5 1.79e-4,2.9e-4 3.62e-4,3.8e-4 0.05369,0.0304 0.0791,0.0497 0.151989,0.11537 0.08495,0.0776 0.123293,0.10448 0.213323,0.15375 1.21e-4,0 1.81e-4,0 3.62e-4,0 0.120637,0.065 0.27097,0.13471 0.359315,0.16416 1.81e-4,1.3e-4 5.43e-4,2.5e-4 7.24e-4,3.8e-4 0.183886,0.0602 0.430275,0.0577 0.68008,0.007 1.21e-4,0 1.81e-4,0 3.62e-4,0 0.01252,-0.003 0.05082,-0.0137 0.06935,-0.0182 -0.0448,0.0242 -0.09413,0.063 -0.125151,0.0753 -0.02359,0.009 -0.06717,0.0219 -0.0676,0.022 -7.23e-4,9e-5 -0.0014,1.8e-4 -0.0021,2.7e-4 -0.02128,0.004 -0.09592,0.009 -0.187867,0.008 -0.09194,-6e-4 -0.205738,-0.005 -0.325928,-0.0118 -0.240385,-0.0143 -0.508267,-0.0404 -0.685245,-0.0701 -0.09159,-0.0154 -0.106753,-0.0151 -0.133913,-0.0331 -0.02716,-0.018 -0.08277,-0.0743 -0.204558,-0.19976 -0.127922,-0.13178 -0.209169,-0.23132 -0.291808,-0.32907 z"
       id="path4934"
       inkscape:connector-curvature="0"
       sodipodi:nodetypes="cccccccccccccccccccccsccccccccccccccccccccccsccccccccccccccccccccccccccccscccccccccccccccccccccccccccccccccccccccccccccccccccccccccccccccccccccccccccccccccccccccccccccccccccccccccccccccccccccccccccccccccccccccccccccccccccccccccccccccccccccccccccccccccccccccccccccccccccccccccccccccccccccccccccccccccccccccccccccccccccscccccccccccccccccccccccccccccccsccccccccccccccsccccccccccccsccccccccccccccccccccccccccccccccccccccccccc" />
    <path
       style="color:#000000;font-style:normal;font-variant:normal;font-weight:normal;font-stretch:normal;font-size:medium;line-height:normal;font-family:sans-serif;font-variant-ligatures:normal;font-variant-position:normal;font-variant-caps:normal;font-variant-numeric:normal;font-variant-alternates:normal;font-feature-settings:normal;text-indent:0;text-align:start;text-decoration:none;text-decoration-line:none;text-decoration-style:solid;text-decoration-color:#000000;letter-spacing:normal;word-spacing:normal;text-transform:none;writing-mode:lr-tb;direction:ltr;text-orientation:mixed;dominant-baseline:auto;baseline-shift:baseline;text-anchor:start;white-space:normal;shape-padding:0;clip-rule:nonzero;display:inline;overflow:visible;visibility:visible;opacity:1;isolation:auto;mix-blend-mode:normal;color-interpolation:sRGB;color-interpolation-filters:linearRGB;solid-color:#000000;solid-opacity:1;vector-effect:none;fill:#ffffff;fill-opacity:1;fill-rule:nonzero;stroke:none;stroke-width:2.64583373;stroke-linecap:butt;stroke-linejoin:miter;stroke-miterlimit:4;stroke-dasharray:none;stroke-dashoffset:0;stroke-opacity:1;marker:none;paint-order:fill markers stroke;color-rendering:auto;image-rendering:auto;shape-rendering:auto;text-rendering:auto;enable-background:accumulate"
       d="m 12.655559,282.12131 -10.5766161,2.17661 c -0.1535317,0.0317 -0.1093294,0.10914 -0.2309936,0.13126 -0.1216632,0.0221 -0.1252828,-0.055 -0.2707845,-0.0258 l -0.1643311,0.045 c -0.2354048,0.17167 -0.47174915,0.53081 -0.58601076,0.84543 -0.19223909,0.52933 -0.18893809,1.15206 0,1.68258 0.13406612,0.37645 0.36896976,0.61495 0.36896976,0.61495 l 6.0823161,6.26577 0.010335,0.005 c 0.048094,0.0592 0.1074883,0.11848 0.1839682,0.17828 0.1107895,0.0866 0.3920308,0.31788 0.620634,0.23823 l 0.00465,0.002 c 0.1910339,-0.0383 0.1382258,-0.14123 0.3100586,-0.17518 0.1718321,-0.034 0.1278001,0.0824 0.3493326,0.0367 l 1.5859498,-0.32194 0.07803,-0.55863 c -0.5643317,0.11548 -1.7125308,0.35052 -1.7978237,0.36794 -0.1097584,0.0224 -0.094286,-0.066 -0.2480469,-0.0284 -0.1169421,0.0286 -0.1252286,0.0716 -0.1689819,0.10025 -0.1189181,-0.0201 -0.2495905,-0.0833 -0.3648356,-0.1912 l -0.060461,-0.0625 c -0.073646,-0.084 -0.1374437,-0.1879 -0.1829345,-0.31316 -0.1491629,-0.41072 -0.1253916,-0.94474 0.023771,-1.35547 0.1235429,-0.34018 0.2294623,-0.5181 0.4459676,-0.57516 0.1331151,-0.007 0.1399739,0.0766 0.2924885,0.0465 0.1718323,-0.034 0.1079664,-0.13619 0.3095418,-0.17777 l 9.0867837,-1.87585 c -0.03995,0.081 -0.07538,0.16299 -0.104386,0.24287 -0.192239,0.52933 -0.192239,1.15326 0,1.68259 0.0758,0.20873 0.203832,0.41376 0.360185,0.58601 -0.25619,0.0524 -3.165749,0.64782 -5.795512,1.18597 l -0.0062,0.54726 7.04143,-1.42834 -0.405143,-0.44958 c 4e-5,-9e-5 0.0016,-0.003 0.0016,-0.003 -0.0014,0 -0.0033,-4.6e-4 -0.0047,-5.1e-4 l -0.662491,-0.73536 c -0.101324,-0.38827 -0.06886,-0.85414 0.0646,-1.22163 0.09606,-0.26449 0.211471,-0.45074 0.338998,-0.57774 l 0.642854,-0.13281 z m -0.296106,0.6227 5.661153,5.83634 -9.7368736,2.0159 -5.6616702,-5.83686 z m -10.4443244,2.22002 0.839742,0.86455 c -0.2289478,0.17672 -0.4642851,0.51585 -0.5751586,0.82114 -0.1002149,0.27595 -0.1479302,0.57745 -0.1436605,0.87798 l -0.2542481,-0.262 c 0,0 -0.2855654,-0.29863 -0.3632853,-0.51263 -0.1184317,-0.3261 -0.1365667,-0.66547 -0.065629,-1.02526 0.018088,-0.0917 0.1308367,-0.61349 0.5622395,-0.76378 z m 1.2531534,1.29088 0.2284101,0.23513 c -0.2255092,0.17893 -0.4551805,0.51187 -0.5643068,0.81235 -0.077342,0.21296 -0.1228664,0.44159 -0.137976,0.67283 -0.083155,-0.37554 -0.047563,-0.81301 0.079065,-1.16169 0.1134039,-0.31226 0.211981,-0.48771 0.3948077,-0.55862 z m 0.6387209,0.65784 2.0670573,2.12907 c -0.2304285,0.17566 -0.4686882,0.51736 -0.5803265,0.82476 -0.0993,0.27342 -0.1469459,0.5719 -0.1436603,0.86971 l -1.6453776,-1.6955 c -0.037846,-0.0646 -0.072642,-0.1374 -0.1023194,-0.21911 -0.1491639,-0.41073 -0.1253927,-0.94475 0.023771,-1.35547 0.1105334,-0.30436 0.2067645,-0.47914 0.3808555,-0.55346 z m 2.482019,2.55643 1.2975953,1.33687 c -0.2237489,0.17995 -0.4508953,0.51017 -0.559139,0.80822 -0.1036865,0.2855 -0.1507889,0.59868 -0.1426271,0.90951 l -0.9529133,-1.00563 c -0.024593,-0.0482 -0.047734,-0.0997 -0.068213,-0.15606 -0.1491639,-0.41073 -0.1248756,-0.92098 0.024288,-1.3317 0.1146648,-0.31573 0.2142363,-0.49187 0.4010091,-0.56121 z"
       id="path4942"
       inkscape:connector-curvature="0" />
    <path
       style="color:#000000;font-style:normal;font-variant:normal;font-weight:normal;font-stretch:normal;font-size:medium;line-height:normal;font-family:sans-serif;font-variant-ligatures:normal;font-variant-position:normal;font-variant-caps:normal;font-variant-numeric:normal;font-variant-alternates:normal;font-feature-settings:normal;text-indent:0;text-align:start;text-decoration:none;text-decoration-line:none;text-decoration-style:solid;text-decoration-color:#000000;letter-spacing:normal;word-spacing:normal;text-transform:none;writing-mode:lr-tb;direction:ltr;text-orientation:mixed;dominant-baseline:auto;baseline-shift:baseline;text-anchor:start;white-space:normal;shape-padding:0;clip-rule:nonzero;display:inline;overflow:visible;visibility:visible;opacity:1;isolation:auto;mix-blend-mode:normal;color-interpolation:sRGB;color-interpolation-filters:linearRGB;solid-color:#000000;solid-opacity:1;vector-effect:none;fill:#ffffff;fill-opacity:1;fill-rule:nonzero;stroke:none;stroke-width:1.76500022;stroke-linecap:butt;stroke-linejoin:miter;stroke-miterlimit:4;stroke-dasharray:none;stroke-dashoffset:0;stroke-opacity:1;marker:none;paint-order:fill markers stroke;color-rendering:auto;image-rendering:auto;shape-rendering:auto;text-rendering:auto;enable-background:accumulate"
       d="m 17.544296,289.94038 -7.9845634,1.62027 -0.2504532,0.39895 8.2986416,-1.70605 z"
       id="path5010"
       inkscape:connector-curvature="0"
       sodipodi:nodetypes="ccccc" />
    <path
       sodipodi:nodetypes="ccccsscccccccccccccccccccccccccccscccccccccccccscccccscccscccscccsc"
       inkscape:connector-curvature="0"
       id="path1027"
       d="m 8.1260766,297.02517 -5.8265562,-5.85925 -0.7412354,-0.53278 -0.1455168,0.0396 c -0.2354047,0.17168 -0.47173324,0.53108 -0.58599487,0.8457 -0.19223894,0.52933 -0.18893802,1.15199 0,1.68251 0.13406628,0.37645 0.36912247,0.61508 0.36912247,0.61508 l 6.0821525,6.26546 0.010381,0.005 c 0.048094,0.0592 0.1076607,0.11807 0.1841405,0.17787 0.1107896,0.0866 0.3919008,0.31786 0.6205038,0.2382 l 0.00467,0.002 c 0.1910339,-0.0383 0.1382788,-0.14121 0.3101113,-0.17517 0.1718322,-0.034 0.1275772,0.0822 0.3491097,0.0365 l 10.4949784,-2.12982 -0.405037,-0.44937 c 4.2e-5,-9e-5 0.0014,-0.003 0.0014,-0.003 -0.0014,0 -0.0029,-1.8e-4 -0.0044,-3.7e-4 l -0.662869,-0.73544 c -0.101324,-0.38827 -0.06846,-0.85426 0.065,-1.22174 0.09605,-0.26449 0.235142,-0.49865 0.36267,-0.62565 l -0.828303,0.17068 c -0.03995,0.081 -0.09921,0.21153 -0.128215,0.29141 -0.192239,0.52934 -0.192239,1.15318 0,1.68252 0.07581,0.20873 0.203887,0.41384 0.360239,0.58609 -0.415043,0.0849 -8.9438538,1.83037 -9.3892921,1.92136 -0.1097583,0.0224 -0.094347,-0.0663 -0.248108,-0.0287 -0.116942,0.0286 -0.1249565,0.0717 -0.1687097,0.10035 -0.1189182,-0.0201 -0.2497628,-0.0834 -0.3650079,-0.19125 l -0.06032,-0.0621 c -0.073645,-0.0839 -0.1377146,-0.18812 -0.1832055,-0.31338 -0.149163,-0.41073 -0.1252213,-0.94484 0.023941,-1.35557 0.1235435,-0.34017 0.229397,-0.51827 0.4459023,-0.57534 0.1331151,-0.007 0.1399216,0.077 0.2924367,0.0469 0.1718322,-0.034 0.1022465,-0.1792 0.3038222,-0.22078 l 0.3044968,-0.10455 c -0.285287,-0.18057 -0.8423147,-0.12372 -0.8423147,-0.12372 z m -6.2108265,-5.83671 0.8397141,0.86497 c -0.228948,0.17671 -0.46446,0.5158 -0.5753335,0.8211 -0.1002153,0.27594 -0.1477293,0.57752 -0.1434596,0.87806 l -0.2543738,-0.26214 c 0,0 -0.2857913,-0.29858 -0.3635116,-0.51258 -0.118431,-0.32611 -0.1362146,-0.66584 -0.065277,-1.02563 0.018088,-0.0917 0.1308384,-0.6135 0.5622414,-0.76378 z m 1.2531652,1.29095 0.2283752,0.23529 c -0.225509,0.17894 -0.4552655,0.51202 -0.5643919,0.8125 -0.077342,0.21296 -0.1230192,0.44127 -0.1381289,0.6725 -0.083155,-0.37553 -0.047229,-0.81284 0.079398,-1.16151 0.1134046,-0.31226 0.2119202,-0.48787 0.3947476,-0.55878 z m 0.6388332,0.6581 2.0666003,2.12888 c -0.2304283,0.17567 -0.4683715,0.51745 -0.5800096,0.82485 -0.0993,0.27342 -0.1469321,0.57202 -0.1436464,0.86983 l -1.6456674,-1.69561 c -0.037846,-0.0646 -0.072446,-0.13731 -0.102124,-0.21903 -0.1491639,-0.41072 -0.1252228,-0.94484 0.023941,-1.35557 0.1105334,-0.30435 0.2068153,-0.47904 0.3809061,-0.55335 z m 2.4815474,2.55636 1.2979613,1.33706 c -0.2237488,0.17996 -0.4508178,0.51006 -0.5590612,0.8081 -0.1036867,0.2855 -0.150967,0.59847 -0.142805,0.9093 l -0.9528729,-1.00572 c -0.024593,-0.0482 -0.047697,-0.0997 -0.068176,-0.15608 -0.1491639,-0.41073 -0.1252227,-0.9209 0.023941,-1.33163 0.1146647,-0.31573 0.2142399,-0.49169 0.4010128,-0.56103 z"
       style="color:#000000;font-style:normal;font-variant:normal;font-weight:normal;font-stretch:normal;font-size:medium;line-height:normal;font-family:sans-serif;font-variant-ligatures:normal;font-variant-position:normal;font-variant-caps:normal;font-variant-numeric:normal;font-variant-alternates:normal;font-feature-settings:normal;text-indent:0;text-align:start;text-decoration:none;text-decoration-line:none;text-decoration-style:solid;text-decoration-color:#000000;letter-spacing:normal;word-spacing:normal;text-transform:none;writing-mode:lr-tb;direction:ltr;text-orientation:mixed;dominant-baseline:auto;baseline-shift:baseline;text-anchor:start;white-space:normal;shape-padding:0;clip-rule:nonzero;display:inline;overflow:visible;visibility:visible;opacity:1;isolation:auto;mix-blend-mode:normal;color-interpolation:sRGB;color-interpolation-filters:linearRGB;solid-color:#000000;solid-opacity:1;vector-effect:none;fill:#ffffff;fill-opacity:1;fill-rule:nonzero;stroke:none;stroke-width:2.64583325;stroke-linecap:butt;stroke-linejoin:miter;stroke-miterlimit:4;stroke-dasharray:none;stroke-dashoffset:0;stroke-opacity:1;marker:none;paint-order:fill markers stroke;color-rendering:auto;image-rendering:auto;shape-rendering:auto;text-rendering:auto;enable-background:accumulate" />
    <path
       style="color:#000000;font-style:normal;font-variant:normal;font-weight:normal;font-stretch:normal;font-size:medium;line-height:normal;font-family:sans-serif;font-variant-ligatures:normal;font-variant-position:normal;font-variant-caps:normal;font-variant-numeric:normal;font-variant-alternates:normal;font-feature-settings:normal;text-indent:0;text-align:start;text-decoration:none;text-decoration-line:none;text-decoration-style:solid;text-decoration-color:#000000;letter-spacing:normal;word-spacing:normal;text-transform:none;writing-mode:lr-tb;direction:ltr;text-orientation:mixed;dominant-baseline:auto;baseline-shift:baseline;text-anchor:start;white-space:normal;shape-padding:0;clip-rule:nonzero;display:inline;overflow:visible;visibility:visible;opacity:1;isolation:auto;mix-blend-mode:normal;color-interpolation:sRGB;color-interpolation-filters:linearRGB;solid-color:#000000;solid-opacity:1;vector-effect:none;fill:#ffffff;fill-opacity:1;fill-rule:nonzero;stroke:none;stroke-width:2.64583325;stroke-linecap:butt;stroke-linejoin:miter;stroke-miterlimit:4;stroke-dasharray:none;stroke-dashoffset:0;stroke-opacity:1;marker:none;paint-order:fill markers stroke;color-rendering:auto;image-rendering:auto;shape-rendering:auto;text-rendering:auto;enable-background:accumulate"
       d="m 8.1260766,300.13751 -5.8265562,-5.85926 -0.7412354,-0.53277 -0.1455168,0.0396 c -0.2354047,0.17168 -0.47173324,0.53108 -0.58599487,0.8457 -0.19223894,0.52933 -0.18893802,1.15199 0,1.68252 0.13406628,0.37644 0.36912247,0.61508 0.36912247,0.61508 l 6.0821525,6.26546 0.010381,0.005 c 0.048094,0.0592 0.1076607,0.11807 0.1841405,0.17787 0.1107896,0.0866 0.3919008,0.31785 0.6205038,0.2382 l 0.00467,0.002 c 0.1910339,-0.0383 0.1382788,-0.14121 0.3101113,-0.17516 0.1718322,-0.034 0.1275772,0.0822 0.3491097,0.0365 l 10.4949784,-2.12982 -0.405037,-0.44936 c 4.2e-5,-10e-5 0.0014,-0.003 0.0014,-0.003 -0.0014,0 -0.0029,-1.8e-4 -0.0044,-3.6e-4 l -0.662869,-0.73544 c -0.101324,-0.38828 -0.06846,-0.85426 0.065,-1.22174 0.09605,-0.26449 0.235142,-0.49866 0.36267,-0.62565 l -0.828303,0.17068 c -0.03995,0.081 -0.09921,0.21153 -0.128215,0.29141 -0.192239,0.52933 -0.192239,1.15318 0,1.68252 0.07581,0.20873 0.203887,0.41384 0.360239,0.58608 -0.415043,0.0849 -8.9438538,1.83037 -9.3892921,1.92137 -0.1097583,0.0224 -0.094347,-0.0663 -0.248108,-0.0287 -0.116942,0.0286 -0.1249565,0.0717 -0.1687097,0.10034 -0.1189182,-0.0201 -0.2497628,-0.0834 -0.3650079,-0.19124 l -0.06032,-0.0621 c -0.073645,-0.0839 -0.1377146,-0.18813 -0.1832055,-0.31339 -0.149163,-0.41072 -0.1252213,-0.94484 0.023941,-1.35556 0.1235435,-0.34018 0.229397,-0.51828 0.4459023,-0.57534 0.1331151,-0.007 0.1399216,0.077 0.2924367,0.0469 0.1718322,-0.034 0.1022465,-0.17919 0.3038222,-0.22077 l 0.3044968,-0.10456 c -0.285287,-0.18056 -0.8423147,-0.12371 -0.8423147,-0.12371 z m -6.2108265,-5.83671 0.8397141,0.86497 c -0.228948,0.17671 -0.46446,0.5158 -0.5753335,0.8211 -0.1002153,0.27594 -0.1477293,0.57753 -0.1434596,0.87806 l -0.2543738,-0.26214 c 0,0 -0.2857913,-0.29858 -0.3635116,-0.51258 -0.118431,-0.3261 -0.1362146,-0.66584 -0.065277,-1.02563 0.018088,-0.0917 0.1308384,-0.6135 0.5622414,-0.76378 z m 1.2531652,1.29095 0.2283752,0.2353 c -0.225509,0.17893 -0.4552655,0.51202 -0.5643919,0.8125 -0.077342,0.21296 -0.1230192,0.44126 -0.1381289,0.6725 -0.083155,-0.37554 -0.047229,-0.81284 0.079398,-1.16152 0.1134046,-0.31226 0.2119202,-0.48787 0.3947476,-0.55878 z m 0.6388332,0.6581 2.0666003,2.12889 c -0.2304283,0.17567 -0.4683715,0.51745 -0.5800096,0.82485 -0.0993,0.27342 -0.1469321,0.57202 -0.1436464,0.86982 l -1.6456674,-1.69561 c -0.037846,-0.0646 -0.072446,-0.13731 -0.102124,-0.21902 -0.1491639,-0.41073 -0.1252228,-0.94485 0.023941,-1.35557 0.1105334,-0.30436 0.2068153,-0.47905 0.3809061,-0.55336 z m 2.4815474,2.55637 1.2979613,1.33705 c -0.2237488,0.17996 -0.4508178,0.51006 -0.5590612,0.80811 -0.1036867,0.2855 -0.150967,0.59846 -0.142805,0.90929 l -0.9528729,-1.00571 c -0.024593,-0.0482 -0.047697,-0.0997 -0.068176,-0.15608 -0.1491639,-0.41073 -0.1252227,-0.92091 0.023941,-1.33163 0.1146647,-0.31574 0.2142399,-0.49169 0.4010128,-0.56103 z"
       id="path1029"
       inkscape:connector-curvature="0"
       sodipodi:nodetypes="ccccsscccccccccccccccccccccccccccscccccccccccccscccccscccscccscccsc" />
    <path
       sodipodi:nodetypes="ccccsscccccccccccccccccccccccccccscccccccccccccscccccscccscccscccsc"
       inkscape:connector-curvature="0"
       id="path1031"
       d="m 8.1260766,303.24987 -5.8265562,-5.85926 -0.7412354,-0.53278 -0.1455168,0.0396 c -0.2354047,0.17168 -0.47173324,0.53108 -0.58599487,0.8457 -0.19223894,0.52934 -0.18893802,1.152 0,1.68252 0.13406628,0.37645 0.36912247,0.61508 0.36912247,0.61508 l 6.0821525,6.26546 0.010381,0.005 c 0.048094,0.0592 0.1076607,0.11807 0.1841405,0.17787 0.1107896,0.0866 0.3919008,0.31786 0.6205038,0.2382 l 0.00467,0.002 c 0.1910339,-0.0383 0.1382788,-0.1412 0.3101113,-0.17516 0.1718322,-0.034 0.1275772,0.0822 0.3491097,0.0365 l 10.4949784,-2.12982 -0.405037,-0.44937 c 4.2e-5,-9e-5 0.0014,-0.003 0.0014,-0.003 -0.0014,0 -0.0029,-1.9e-4 -0.0044,-3.7e-4 l -0.662869,-0.73544 c -0.101324,-0.38827 -0.06846,-0.85426 0.065,-1.22174 0.09605,-0.26449 0.235142,-0.49865 0.36267,-0.62565 l -0.828303,0.17068 c -0.03995,0.081 -0.09921,0.21153 -0.128215,0.29141 -0.192239,0.52934 -0.192239,1.15318 0,1.68252 0.07581,0.20873 0.203887,0.41384 0.360239,0.58609 -0.415043,0.0849 -8.9438538,1.83037 -9.3892921,1.92136 -0.1097583,0.0224 -0.094347,-0.0663 -0.248108,-0.0287 -0.116942,0.0286 -0.1249565,0.0717 -0.1687097,0.10035 -0.1189182,-0.0201 -0.2497628,-0.0834 -0.3650079,-0.19125 l -0.06032,-0.0621 c -0.073645,-0.0839 -0.1377146,-0.18812 -0.1832055,-0.31338 -0.149163,-0.41073 -0.1252213,-0.94484 0.023941,-1.35557 0.1235435,-0.34017 0.229397,-0.51828 0.4459023,-0.57534 0.1331151,-0.007 0.1399216,0.077 0.2924367,0.0469 0.1718322,-0.034 0.1022465,-0.1792 0.3038222,-0.22078 l 0.3044968,-0.10455 c -0.285287,-0.18057 -0.8423147,-0.12372 -0.8423147,-0.12372 z m -6.2108265,-5.83672 0.8397141,0.86497 c -0.228948,0.17672 -0.46446,0.51581 -0.5753335,0.8211 -0.1002153,0.27595 -0.1477293,0.57753 -0.1434596,0.87806 l -0.2543738,-0.26213 c 0,0 -0.2857913,-0.29858 -0.3635116,-0.51259 -0.118431,-0.3261 -0.1362146,-0.66584 -0.065277,-1.02563 0.018088,-0.0917 0.1308384,-0.6135 0.5622414,-0.76378 z m 1.2531652,1.29095 0.2283752,0.2353 c -0.225509,0.17893 -0.4552655,0.51202 -0.5643919,0.8125 -0.077342,0.21296 -0.1230192,0.44126 -0.1381289,0.6725 -0.083155,-0.37553 -0.047229,-0.81284 0.079398,-1.16152 0.1134046,-0.31226 0.2119202,-0.48787 0.3947476,-0.55878 z m 0.6388332,0.6581 2.0666003,2.12889 c -0.2304283,0.17567 -0.4683715,0.51745 -0.5800096,0.82485 -0.0993,0.27342 -0.1469321,0.57202 -0.1436464,0.86983 l -1.6456674,-1.69561 c -0.037846,-0.0646 -0.072446,-0.13731 -0.102124,-0.21903 -0.1491639,-0.41072 -0.1252228,-0.94484 0.023941,-1.35557 0.1105334,-0.30436 0.2068153,-0.47904 0.3809061,-0.55336 z m 2.4815474,2.55637 1.2979613,1.33706 c -0.2237488,0.17996 -0.4508178,0.51006 -0.5590612,0.8081 -0.1036867,0.2855 -0.150967,0.59846 -0.142805,0.9093 l -0.9528729,-1.00572 c -0.024593,-0.0482 -0.047697,-0.0997 -0.068176,-0.15608 -0.1491639,-0.41073 -0.1252227,-0.92091 0.023941,-1.33163 0.1146647,-0.31573 0.2142399,-0.49169 0.4010128,-0.56103 z"
       style="color:#000000;font-style:normal;font-variant:normal;font-weight:normal;font-stretch:normal;font-size:medium;line-height:normal;font-family:sans-serif;font-variant-ligatures:normal;font-variant-position:normal;font-variant-caps:normal;font-variant-numeric:normal;font-variant-alternates:normal;font-feature-settings:normal;text-indent:0;text-align:start;text-decoration:none;text-decoration-line:none;text-decoration-style:solid;text-decoration-color:#000000;letter-spacing:normal;word-spacing:normal;text-transform:none;writing-mode:lr-tb;direction:ltr;text-orientation:mixed;dominant-baseline:auto;baseline-shift:baseline;text-anchor:start;white-space:normal;shape-padding:0;clip-rule:nonzero;display:inline;overflow:visible;visibility:visible;opacity:1;isolation:auto;mix-blend-mode:normal;color-interpolation:sRGB;color-interpolation-filters:linearRGB;solid-color:#000000;solid-opacity:1;vector-effect:none;fill:#ffffff;fill-opacity:1;fill-rule:nonzero;stroke:none;stroke-width:2.64583325;stroke-linecap:butt;stroke-linejoin:miter;stroke-miterlimit:4;stroke-dasharray:none;stroke-dashoffset:0;stroke-opacity:1;marker:none;paint-order:fill markers stroke;color-rendering:auto;image-rendering:auto;shape-rendering:auto;text-rendering:auto;enable-background:accumulate" />
    <path
       style="color:#000000;font-style:normal;font-variant:normal;font-weight:normal;font-stretch:normal;font-size:medium;line-height:normal;font-family:sans-serif;font-variant-ligatures:normal;font-variant-position:normal;font-variant-caps:normal;font-variant-numeric:normal;font-variant-alternates:normal;font-feature-settings:normal;text-indent:0;text-align:start;text-decoration:none;text-decoration-line:none;text-decoration-style:solid;text-decoration-color:#000000;letter-spacing:normal;word-spacing:normal;text-transform:none;writing-mode:lr-tb;direction:ltr;text-orientation:mixed;dominant-baseline:auto;baseline-shift:baseline;text-anchor:start;white-space:normal;shape-padding:0;clip-rule:nonzero;display:inline;overflow:visible;visibility:visible;opacity:1;isolation:auto;mix-blend-mode:normal;color-interpolation:sRGB;color-interpolation-filters:linearRGB;solid-color:#000000;solid-opacity:1;vector-effect:none;fill:#ffffff;fill-opacity:1;fill-rule:nonzero;stroke:none;stroke-width:2.46499991;stroke-linecap:butt;stroke-linejoin:miter;stroke-miterlimit:10;stroke-dasharray:none;stroke-dashoffset:0;stroke-opacity:1;marker:none;paint-order:fill markers stroke;color-rendering:auto;image-rendering:auto;shape-rendering:auto;text-rendering:auto;enable-background:accumulate"
       d="m 12.003848,291.09337 -0.24707,0.37149 c 0.178045,0.11827 0.254913,0.22971 0.296908,0.36229 0.04199,0.13259 0.04338,0.29915 0.0152,0.50474 -0.05636,0.41118 -0.254996,0.95669 -0.265353,1.60931 -0.01707,1.07542 0.05844,1.47776 0.345089,2.61733 -0.443286,-0.56955 -0.840029,-1.90299 -0.840029,-1.90299 0,0 -0.589878,0.58048 -0.488128,1.93348 -0.185862,-0.70676 -0.318981,-1.582 -0.248131,-2.51845 0.03657,-0.4833 0.19007,-0.96828 0.249897,-1.42198 0.02992,-0.22684 0.03671,-0.45032 -0.02651,-0.66556 -0.06322,-0.21525 -0.20655,-0.41452 -0.428041,-0.55423 l -0.333641,0.3775 c 0.141684,0.0894 0.202148,0.17971 0.23823,0.30256 0.03608,0.12285 0.03746,0.28581 0.01165,0.48141 -0.05159,0.39122 -0.210676,0.8953 -0.252368,1.44636 -0.1334173,1.76341 0.394527,3.22559 0.744738,4.05102 l 0.643983,1.29225 -0.120884,-1.39865 c -0.05708,-0.6612 -0.04689,-0.84902 0.02409,-1.68778 0.297371,0.84988 0.868945,1.39131 1.945708,2.69419 0,0 -0.861815,-2.93003 -0.899895,-5.03939 -0.01037,-0.57487 0.172151,-1.08123 0.237172,-1.55558 0.03251,-0.23718 0.04043,-0.47212 -0.03181,-0.70021 -0.07224,-0.22809 -0.230328,-0.43654 -0.475051,-0.59911 z"
       id="path5014"
       inkscape:connector-curvature="0"
       sodipodi:nodetypes="ccccsccccccccscscccccscscc" />
  </g>
</svg>
