<?xml version="1.0" encoding="UTF-8" standalone="no"?>
<!-- Created with Inkscape (http://www.inkscape.org/) -->

<svg
   xmlns:osb="http://www.openswatchbook.org/uri/2009/osb"
   xmlns:dc="http://purl.org/dc/elements/1.1/"
   xmlns:cc="http://creativecommons.org/ns#"
   xmlns:rdf="http://www.w3.org/1999/02/22-rdf-syntax-ns#"
   xmlns:svg="http://www.w3.org/2000/svg"
   xmlns="http://www.w3.org/2000/svg"
   xmlns:sodipodi="http://sodipodi.sourceforge.net/DTD/sodipodi-0.dtd"
   xmlns:inkscape="http://www.inkscape.org/namespaces/inkscape"
   width="16"
   height="16"
   viewBox="0 0 4.2333332 4.2333332"
   version="1.1"
   id="svg8"
   inkscape:version="0.92.2 5c3e80d, 2017-08-06"
   sodipodi:docname="favicon.svg"
   inkscape:export-xdpi="96"
   inkscape:export-ydpi="96">
  <defs
     id="defs2">
    <linearGradient
       osb:paint="solid"
       id="linearGradient6073">
      <stop
         id="stop6075"
         offset="0"
         style="stop-color:#000000;stop-opacity:1;" />
    </linearGradient>
  </defs>
  <sodipodi:namedview
     id="base"
     pagecolor="#ffffff"
     bordercolor="#666666"
     borderopacity="1.0"
     inkscape:pageopacity="0.0"
     inkscape:pageshadow="2"
     inkscape:document-units="px"
     inkscape:current-layer="layer1"
     inkscape:document-rotation="0"
     showgrid="true"
     units="px"
     inkscape:showpageshadow="false"
     inkscape:snap-global="false"
     inkscape:snap-smooth-nodes="false"
     inkscape:object-paths="true"
     borderlayer="true">
    <inkscape:grid
       type="xygrid"
       id="grid1037"
       color="#ffffff"
       opacity="0.03921569"
       empcolor="#ffffff"
       empopacity="0.07843137"
       empspacing="1" />
  </sodipodi:namedview>
  <metadata
     id="metadata5">
    <rdf:RDF>
      <cc:Work
         rdf:about="">
        <dc:format>image/svg+xml</dc:format>
        <dc:type
           rdf:resource="http://purl.org/dc/dcmitype/StillImage" />
        <dc:title />
      </cc:Work>
    </rdf:RDF>
  </metadata>
  <g
     inkscape:groupmode="layer"
     id="layer2"
     inkscape:label="BG">
    <rect
       style="color:#000000;overflow:visible;opacity:1;vector-effect:none;fill:#000000;fill-opacity:1.0;stroke:none;stroke-width:0.37041664;stroke-linecap:round;stroke-linejoin:round;stroke-miterlimit:4;stroke-dasharray:none;stroke-dashoffset:0;stroke-opacity:0.9938838;paint-order:fill markers stroke"
       id="rect1157"
       width="4.2333331"
       height="4.233346"
       x="0"
       y="0" />
  </g>
  <g
     inkscape:label="Layer 1"
     inkscape:groupmode="layer"
     id="layer1"
     transform="translate(0,-292.76667)">
    <path
       style="color:#000000;font-style:normal;font-variant:normal;font-weight:normal;font-stretch:normal;font-size:medium;line-height:normal;font-family:sans-serif;font-variant-ligatures:normal;font-variant-position:normal;font-variant-caps:normal;font-variant-numeric:normal;font-variant-alternates:normal;font-feature-settings:normal;text-indent:0;text-align:start;text-decoration:none;text-decoration-line:none;text-decoration-style:solid;text-decoration-color:#000000;letter-spacing:normal;word-spacing:normal;text-transform:none;writing-mode:lr-tb;direction:ltr;text-orientation:mixed;dominant-baseline:auto;baseline-shift:baseline;text-anchor:start;white-space:normal;shape-padding:0;clip-rule:nonzero;display:inline;overflow:visible;visibility:visible;opacity:1;isolation:auto;mix-blend-mode:normal;color-interpolation:sRGB;color-interpolation-filters:linearRGB;solid-color:#000000;solid-opacity:1;vector-effect:none;fill:#ffffff;fill-opacity:0.8;fill-rule:nonzero;stroke:none;stroke-width:0.3175;stroke-linecap:round;stroke-linejoin:round;stroke-miterlimit:4;stroke-dasharray:none;stroke-dashoffset:0;stroke-opacity:1;paint-order:fill markers stroke;color-rendering:auto;image-rendering:auto;shape-rendering:auto;text-rendering:auto;enable-background:accumulate"
       d="m 1.4660604,293.51649 a 0.15876587,0.15876587 0 0 0 -0.014986,0.001 0.15876587,0.15876587 0 0 0 -0.1405599,0.16019 c 0,0.0613 -0.00388,0.17986 -0.00413,0.29869 -2.416e-4,0.11883 3.596e-4,0.23314 0.023771,0.33435 a 0.15876587,0.15876587 0 1 0 0.3085083,-0.0703 c -0.00819,-0.0354 -0.01573,-0.15249 -0.015503,-0.26407 2.268e-4,-0.11157 0.00362,-0.22436 0.00362,-0.29869 a 0.15876587,0.15876587 0 0 0 -0.1607137,-0.16123 z m -0.54983727,0.0305 a 0.15876587,0.15876587 0 0 0 -0.01757,0.002 v 5.2e-4 a 0.15876587,0.15876587 0 0 0 -0.13487548,0.14831 c -0.006264,0.0856 -0.0140282,0.19183 -0.0155029,0.29507 -0.001475,0.10323 -0.001174,0.19813 0.0268717,0.29249 a 0.15893674,0.15893674 0 0 0 0.30489095,-0.0899 c -0.00733,-0.0247 -0.016794,-0.10859 -0.015503,-0.19895 0.00129,-0.0904 0.00928,-0.19035 0.015503,-0.27543 a 0.15876587,0.15876587 0 0 0 -0.16381429,-0.17364 z m 1.82211087,0.0155 c -0.060614,-0.007 -0.115282,-0.002 -0.1720824,0.002 -0.1136006,0.008 -0.2412551,0.009 -0.2516642,0.006 -0.069104,-0.0204 -0.1545753,-0.004 -0.2072225,0.0289 -0.052647,0.0334 -0.082343,0.0736 -0.107487,0.10956 -0.050287,0.0719 -0.084951,0.14039 -0.1152384,0.1757 a 0.15876587,0.15876587 0 1 0 0.2402954,0.20515 c 0.067841,-0.0791 0.1066481,-0.1591 0.1348754,-0.19947 0.00941,-0.0135 0.00993,-0.0133 0.011886,-0.0155 0.1164022,0.0211 0.2262039,0.0127 0.3162598,0.006 0.043912,-0.003 0.075577,-0.003 0.095601,-0.002 2.283e-4,3.7e-4 0.0018,0.001 0.00207,0.002 0.00295,0.005 0.00577,0.0126 0.011885,0.0253 0.015288,0.0319 0.035331,0.0802 0.056327,0.13281 0.020996,0.0526 0.043067,0.10937 0.068213,0.16226 0.00356,0.007 0.00788,0.0144 0.011369,0.0217 -0.00766,0.005 -0.014899,0.01 -0.022737,0.015 -0.1004986,0.0684 -0.1991367,0.14354 -0.2578655,0.18552 -0.101058,0.0722 -0.1561902,0.1756 -0.1834513,0.27337 -0.027261,0.0978 -0.033061,0.19046 0.00568,0.28732 0.00106,0.003 0.020854,0.0659 0.042891,0.13849 0.022037,0.0726 0.048928,0.16335 0.078032,0.25373 0.029103,0.0904 0.061015,0.17926 0.091984,0.2558 0.015484,0.0383 0.029758,0.0733 0.047026,0.10542 0.017268,0.0321 0.030208,0.062 0.078031,0.0997 0.049574,0.0391 0.1219824,0.0798 0.2051555,0.0935 0.083173,0.0138 0.1702049,0.0118 0.3162597,0.004 0.1666533,-0.009 0.2870334,-0.0563 0.3632853,-0.12868 0.076252,-0.0724 0.1016839,-0.14072 0.107487,-0.14831 0.03073,-0.0402 0.056418,-0.0752 0.072347,-0.0961 0.00289,-0.004 0.00139,-0.005 0.00362,-0.008 a 0.15876587,0.15876587 0 0 0 0.00413,-0.004 0.15876587,0.15876587 0 0 0 0.033073,-0.0351 0.15876587,0.15876587 0 0 0 0.1384927,-0.0718 c 0.06253,-0.0973 0.070554,-0.19624 0.07028,-0.30696 -2.741e-4,-0.11073 -0.017199,-0.22922 -0.058394,-0.34158 a 0.15876587,0.15876587 0 0 0 -0.025322,-0.045 c -0.068483,-0.086 -0.1479618,-0.14755 -0.2330606,-0.18397 -0.00107,-0.12115 -0.020548,-0.22041 -0.065629,-0.30282 -0.045853,-0.0838 -0.1201182,-0.14374 -0.1937866,-0.17157 -0.1473372,-0.0557 -0.2801779,-0.0171 -0.3260783,-0.0103 v 5.1e-4 c -0.00207,3.2e-4 -0.00364,10e-4 -0.00568,0.002 -0.00555,-0.009 -0.00389,-0.006 -0.00982,-0.0186 -0.018647,-0.0392 -0.039557,-0.0903 -0.060461,-0.14263 -0.020904,-0.0524 -0.041525,-0.10436 -0.064596,-0.15244 -0.011536,-0.024 -0.024712,-0.0485 -0.040824,-0.0724 -0.015336,-0.0227 -0.033498,-0.0481 -0.080098,-0.0739 -0.00236,-0.001 -0.00161,-0.003 -0.00413,-0.004 -0.00758,-0.006 -0.010296,-0.0213 -0.01757,-0.0253 -0.040504,-0.0222 -0.073046,-0.0275 -0.1033529,-0.031 z m 0.5338178,0.82217 c 0.029449,-0.002 0.053146,-9.9e-4 0.065629,0.004 0.012483,0.005 0.01569,0.006 0.027389,0.0274 0.011203,0.0205 0.026791,0.0678 0.028422,0.14935 -0.018544,0.009 -0.03699,0.018 -0.053744,0.0305 -0.00941,0.007 -0.014595,0.009 -0.037207,0.016 -0.022612,0.006 -0.065189,0.01 -0.1209228,0.0465 -0.055734,0.0369 -0.098389,0.11136 -0.1116211,0.17983 -0.013232,0.0685 -0.011573,0.13956 -0.00155,0.23823 0.00341,0.0336 -0.013698,0.11268 0.021187,0.21911 0.017443,0.0532 0.056377,0.11244 0.1131716,0.15192 0.056794,0.0395 0.1245658,0.0603 0.199471,0.0687 0.00592,6.7e-4 0.010204,4.4e-4 0.01602,10e-4 -0.01158,0.0196 -0.032219,0.0522 -0.039274,0.0589 -0.013296,0.0126 -0.038769,0.0364 -0.1601968,0.0429 -0.1408319,0.008 -0.2183865,0.005 -0.250114,0 -0.02504,-0.004 -0.030058,-0.007 -0.047026,-0.0207 -0.00194,-0.002 -0.00454,-0.004 -0.00775,-0.0103 -0.00843,-0.0157 -0.02026,-0.0428 -0.033073,-0.0744 -0.025626,-0.0633 -0.054242,-0.14738 -0.082166,-0.23409 -0.027923,-0.0867 -0.05382,-0.17512 -0.075964,-0.24805 -0.022144,-0.0729 -0.035709,-0.12187 -0.05271,-0.16433 0.00263,0.007 -0.00639,-0.0426 0.00568,-0.0858 0.012066,-0.0433 0.037184,-0.0816 0.062528,-0.0997 0.067673,-0.0484 0.1615342,-0.12005 0.2516643,-0.18138 0.09013,-0.0613 0.1951191,-0.10539 0.181901,-0.10336 0.035736,-0.005 0.070803,-0.0101 0.1002525,-0.0119 z m -2.2629111,0.15761 a 0.15876587,0.15876587 0 0 0 -0.0170532,5.2e-4 0.15876587,0.15876587 0 0 0 -0.0568441,0.016 c -0.10536177,0.05 -0.23009984,0.10158 -0.33589679,0.15193 -0.0528985,0.0252 -0.0995254,0.0502 -0.14262695,0.078 -0.0431016,0.0279 -0.097114,0.0412 -0.1245402,0.15089 -0.005237,0.0209 -0.0374171,0.13997 -0.0609782,0.27492 -0.0235611,0.13496 -0.0484867,0.28365 -0.0134359,0.42788 a 0.15893123,0.15893123 0 0 0 0.30850829,-0.076 c -0.009398,-0.0387 -0.003192,-0.17821 0.01757,-0.29714 0.0178623,-0.10231 0.0358927,-0.1727 0.0470256,-0.21653 0.0215791,-0.0138 0.0592463,-0.0328 0.10541992,-0.0548 0.0943984,-0.0449 0.22035355,-0.0976 0.33589683,-0.15245 a 0.15876587,0.15876587 0 0 0 -0.063045,-0.30334 z m 0.3834391,0.1509 a 0.15876587,0.15876587 0 0 0 -0.1173055,0.0646 c -0.062587,0.0825 -0.1638544,0.22391 -0.2537313,0.35554 -0.0449384,0.0658 -0.0867698,0.12851 -0.11937252,0.18345 -0.0163013,0.0275 -0.0309373,0.053 -0.0428914,0.078 -0.0119541,0.025 -0.0251599,0.0423 -0.0294556,0.0982 -0.004795,0.0623 0.005031,0.0908 0.0139526,0.14625 0.008922,0.0555 0.0207185,0.12026 0.03514,0.18552 0.0144214,0.0652 0.0296336,0.1311 0.0465088,0.18758 0.0168752,0.0565 0.0203311,0.0915 0.0687296,0.15606 a 0.158986,0.158986 0 0 0 0.25786532,-0.18603 c 0.011125,0.0134 -0.00977,-0.0221 -0.021704,-0.062 -0.013499,-0.0452 -0.027632,-0.10413 -0.040824,-0.16382 -0.013192,-0.0597 -0.025944,-0.1204 -0.03359,-0.16795 -0.0064,-0.0398 -0.00635,-0.0633 -0.00775,-0.0605 0.00556,-0.0113 0.013519,-0.0284 0.025838,-0.0491 0.026593,-0.0448 0.066304,-0.10537 0.1090373,-0.16795 0.085467,-0.12517 0.1870694,-0.26186 0.2459798,-0.33951 a 0.15876587,0.15876587 0 0 0 -0.1364258,-0.25787 z m 2.1383707,0.15606 v 5.2e-4 c 4.522e-4,-3.4e-4 0.00782,-0.006 0.037207,0.002 0.024519,0.007 0.064685,0.0389 0.10542,0.0817 0.019542,0.0641 0.034976,0.13891 0.03514,0.20516 8.81e-5,0.0356 -0.00273,0.038 -0.00775,0.0625 -0.072288,0.005 -0.1302856,0.0128 -0.2635496,-0.002 -0.034049,-0.004 -0.041831,-0.008 -0.044959,-0.01 -0.00127,-0.009 8.245e-4,-0.0603 -0.00775,-0.14469 -0.00722,-0.0711 -0.00631,-0.10412 -0.00413,-0.12506 0.00494,-0.002 -8.689e-4,-10e-5 0.0062,-0.002 0.034439,-0.009 0.089953,-0.0276 0.1441772,-0.0682 z m -1.8143595,0.0842 a 0.15876587,0.15876587 0 0 0 -0.1503784,0.13281 c -0.019794,0.11311 -0.049083,0.29686 -0.07028,0.46715 -0.010599,0.0851 -0.018941,0.16633 -0.023254,0.23617 -0.00431,0.0698 -0.013687,0.11337 0.00982,0.19327 2.019e-4,6.8e-4 0.00786,0.019 0.00982,0.0232 0.00196,0.004 0.002,0.008 0.00362,0.0119 0.00323,0.006 0.0079,0.0121 0.011886,0.0196 0.00799,0.0151 0.017454,0.0336 0.029455,0.0563 0.024004,0.0454 0.054265,0.10517 0.083716,0.16795 a 0.15946789,0.15946789 0 1 0 0.2888712,-0.13488 c -0.032764,-0.0698 -0.066361,-0.13385 -0.091467,-0.18138 -0.012553,-0.0238 -0.022308,-0.0434 -0.029456,-0.0568 -9.897e-4,-0.002 -0.00122,-0.002 -0.00207,-0.004 0.00566,0.0155 -0.00122,-0.0232 0.00207,-0.0765 0.00363,-0.0587 0.013144,-0.13531 0.023254,-0.21653 0.020222,-0.16246 0.047798,-0.34332 0.066663,-0.45113 a 0.15876587,0.15876587 0 0 0 -0.1622641,-0.18759 z m 0.5079794,0.36432 a 0.15876587,0.15876587 0 0 0 -0.015503,10e-4 0.15876587,0.15876587 0 0 0 -0.142627,0.14263 c -0.011826,0.10641 -0.00255,0.24623 0.013436,0.38861 0.00799,0.0712 0.019313,0.14055 0.031523,0.20102 0.01221,0.0605 0.016345,0.1032 0.05426,0.1664 a 0.15876587,0.15876587 0 1 0 0.271818,-0.16227 c 0.013064,0.0218 -0.00597,-0.0195 -0.015503,-0.0667 -0.00954,-0.0472 -0.018641,-0.10951 -0.025838,-0.17363 -0.014394,-0.12823 -0.018179,-0.27565 -0.013436,-0.31833 a 0.15876587,0.15876587 0 0 0 -0.1581299,-0.1788 z"
       id="path1029"
       inkscape:connector-curvature="0" />
  </g>
</svg>
