<?xml version="1.0" encoding="UTF-8" standalone="no"?>
<!-- Created with Inkscape (http://www.inkscape.org/) -->

<svg
   xmlns:osb="http://www.openswatchbook.org/uri/2009/osb"
   xmlns:dc="http://purl.org/dc/elements/1.1/"
   xmlns:cc="http://creativecommons.org/ns#"
   xmlns:rdf="http://www.w3.org/1999/02/22-rdf-syntax-ns#"
   xmlns:svg="http://www.w3.org/2000/svg"
   xmlns="http://www.w3.org/2000/svg"
   xmlns:sodipodi="http://sodipodi.sourceforge.net/DTD/sodipodi-0.dtd"
   xmlns:inkscape="http://www.inkscape.org/namespaces/inkscape"
   width="24"
   height="24"
   viewBox="0 0 6.3499998 6.3499998"
   version="1.1"
   id="svg8"
   inkscape:version="0.92.2 5c3e80d, 2017-08-06"
   sodipodi:docname="logo.svg">
  <defs
     id="defs2">
    <linearGradient
       osb:paint="solid"
       id="linearGradient6073">
      <stop
         id="stop6075"
         offset="0"
         style="stop-color:#000000;stop-opacity:1;" />
    </linearGradient>
  </defs>
  <sodipodi:namedview
     id="base"
     pagecolor="#2f2f2f"
     bordercolor="#666666"
     borderopacity="1.0"
     inkscape:pageopacity="0"
     inkscape:pageshadow="2"
     inkscape:document-units="px"
     inkscape:current-layer="layer1"
     inkscape:document-rotation="0"
     showgrid="true"
     units="px"
     inkscape:showpageshadow="false"
     inkscape:snap-global="false"
     inkscape:snap-smooth-nodes="false"
     inkscape:object-paths="true">
    <inkscape:grid
       type="xygrid"
       id="grid1037" />
  </sodipodi:namedview>
  <metadata
     id="metadata5">
    <rdf:RDF>
      <cc:Work
         rdf:about="">
        <dc:format>image/svg+xml</dc:format>
        <dc:type
           rdf:resource="http://purl.org/dc/dcmitype/StillImage" />
        <dc:title />
      </cc:Work>
    </rdf:RDF>
  </metadata>
  <g
     inkscape:label="Layer 1"
     inkscape:groupmode="layer"
     id="layer1"
     transform="translate(0,-290.65)">
    <path
       style="color:#000000;font-style:normal;font-variant:normal;font-weight:normal;font-stretch:normal;font-size:medium;line-height:normal;font-family:sans-serif;font-variant-ligatures:normal;font-variant-position:normal;font-variant-caps:normal;font-variant-numeric:normal;font-variant-alternates:normal;font-feature-settings:normal;text-indent:0;text-align:start;text-decoration:none;text-decoration-line:none;text-decoration-style:solid;text-decoration-color:#000000;letter-spacing:normal;word-spacing:normal;text-transform:none;writing-mode:lr-tb;direction:ltr;text-orientation:mixed;dominant-baseline:auto;baseline-shift:baseline;text-anchor:start;white-space:normal;shape-padding:0;clip-rule:nonzero;display:inline;overflow:visible;visibility:visible;opacity:1;isolation:auto;mix-blend-mode:normal;color-interpolation:sRGB;color-interpolation-filters:linearRGB;solid-color:#000000;solid-opacity:1;vector-effect:none;fill:#ffffff;fill-opacity:0.8;fill-rule:nonzero;stroke:none;stroke-width:1.20000005;stroke-linecap:round;stroke-linejoin:round;stroke-miterlimit:4;stroke-dasharray:none;stroke-dashoffset:0;stroke-opacity:1;paint-order:fill markers stroke;color-rendering:auto;image-rendering:auto;shape-rendering:auto;text-rendering:auto;enable-background:accumulate"
       d="M 5.5078125 0.22265625 A 0.60006 0.60006 0 0 0 4.9316406 0.78320312 C 4.8962265 1.2669071 4.8577769 1.8654685 4.8496094 2.4375 C 4.8414456 3.0095693 4.8510026 3.541331 4.9902344 4.0097656 A 0.60032798 0.60032798 0 1 0 6.1425781 3.6699219 C 6.0816597 3.4650715 6.0374497 2.9745609 6.0449219 2.4511719 C 6.0524053 1.9277829 6.0916826 1.3549367 6.1269531 0.87304688 A 0.60006 0.60006 0 0 0 5.5078125 0.22265625 z M 9.46875 0.609375 A 0.60006 0.60006 0 0 0 9.4042969 0.61328125 A 0.60006 0.60006 0 0 0 8.8730469 1.21875 C 8.8730469 1.5778051 8.8529231 2.2445436 8.8515625 2.9101562 C 8.8502109 3.5757689 8.8584031 4.2215809 8.9765625 4.7324219 A 0.60006 0.60006 0 1 0 10.142578 4.4609375 C 10.081939 4.1986383 10.053395 3.5483295 10.054688 2.9101562 C 10.055984 2.271983 10.076172 1.6270524 10.076172 1.21875 A 0.60006 0.60006 0 0 0 9.46875 0.609375 z M 14.123047 0.68359375 C 13.880223 0.67028863 13.64088 0.7358745 13.464844 0.8359375 C 13.230128 0.96784302 13.078355 1.132311 12.941406 1.2792969 C 12.667508 1.5729662 12.449226 1.7894626 12.304688 1.8398438 A 0.60006 0.60006 0 1 0 12.705078 2.96875 C 13.28481 2.7665453 13.591645 2.3407933 13.818359 2.0976562 C 13.928064 1.9801129 14.013456 1.9047971 14.046875 1.8847656 C 14.512874 2.0215845 15.204176 2.1767605 15.783203 2.3574219 C 16.076472 2.4488864 16.334529 2.5457566 16.490234 2.6289062 C 16.566581 2.6694917 16.594945 2.7094913 16.599609 2.7148438 C 16.71117 3.2362575 16.953424 3.8592928 17.326172 4.4023438 C 16.775152 4.5790989 16.215406 4.8084434 15.783203 5.1171875 C 15.28248 5.4747308 14.999358 5.9960122 14.859375 6.4980469 C 14.719393 7.0000815 14.694626 7.4866023 14.875 7.9375 C 14.855157 7.8879882 14.947268 8.2530367 15.007812 8.6523438 C 15.068361 9.0516508 15.136865 9.5533709 15.214844 10.054688 C 15.292827 10.555966 15.381272 11.056519 15.486328 11.480469 C 15.538856 11.6925 15.592376 11.880174 15.664062 12.056641 C 15.735749 12.233145 15.79488 12.402894 16.019531 12.580078 C 16.745711 13.153357 17.785457 13.223433 19.451172 13.134766 C 20.351695 13.086766 20.946029 12.837685 21.318359 12.484375 C 21.690688 12.130989 21.817462 11.772637 21.894531 11.671875 C 22.06588 11.447749 22.2066 11.264216 22.300781 11.140625 C 22.337337 11.09279 22.355501 11.06287 22.373047 11.041016 C 22.402147 11.034204 22.434357 11.031012 22.462891 11.023438 C 22.769017 10.9418 23.089031 10.832016 23.3125 10.484375 C 23.61812 10.008986 23.646005 9.4713172 23.636719 8.8535156 C 23.627421 8.2356762 23.531252 7.5595647 23.3125 6.9628906 A 0.60006 0.60006 0 0 0 23.222656 6.8085938 C 22.47035 5.8116299 22.010737 5.2990361 21.363281 5.1328125 C 21.333464 5.1251539 21.303424 5.1241965 21.273438 5.1191406 C 21.063587 4.6410615 20.738836 4.2924468 20.359375 4.1191406 C 19.867649 3.8946367 19.380189 3.9437484 19.001953 4.0019531 C 18.895732 4.018318 18.746249 4.0509974 18.613281 4.0761719 C 18.30591 3.7479876 17.801024 2.6745698 17.746094 2.3632812 C 17.660692 1.8793505 17.328785 1.7133165 17.052734 1.5664062 C 16.776685 1.4193826 16.466001 1.3078813 16.136719 1.2050781 C 15.478154 0.99947182 14.742865 0.83629442 14.365234 0.72460938 C 14.286045 0.7011763 14.203988 0.68802879 14.123047 0.68359375 z M 19.574219 5.15625 C 19.68826 5.1607854 19.784798 5.1788749 19.857422 5.2128906 C 19.947221 5.2540163 20.036369 5.3228957 20.119141 5.4726562 C 20.077226 5.5046337 20.023841 5.5348434 19.982422 5.5664062 C 19.97422 5.5739653 19.961251 5.5744722 19.953125 5.5820312 A 0.60006 0.60006 0 0 0 19.878906 5.6347656 C 19.502016 5.9163404 19.065275 6.2722199 18.691406 6.6972656 C 18.317539 7.1222735 17.980356 7.6237823 17.945312 8.2480469 C 17.934768 8.4358894 17.789802 9.0047128 17.841797 9.6054688 C 17.8678 9.9059412 17.951778 10.253419 18.197266 10.542969 C 18.442754 10.832481 18.832014 11.012169 19.267578 11.060547 C 19.743993 11.113522 20.278691 11.143736 20.808594 11.152344 C 20.677077 11.356804 20.593158 11.517464 20.492188 11.613281 C 20.357806 11.740651 20.122173 11.890758 19.392578 11.929688 C 17.877619 12.01045 17.091836 11.849545 16.8125 11.666016 C 16.803395 11.651877 16.792866 11.639234 16.779297 11.605469 C 16.742522 11.51476 16.690701 11.369687 16.646484 11.191406 C 16.558047 10.834619 16.47804 10.355755 16.402344 9.8691406 C 16.326647 9.3825264 16.258011 8.8880897 16.195312 8.4746094 C 16.132618 8.061129 16.110311 7.797271 15.988281 7.4921875 C 15.964281 7.432093 15.93699 7.1163629 16.019531 6.8203125 C 16.10208 6.5243755 16.269846 6.2430658 16.484375 6.0898438 C 16.980302 5.735702 18.612814 5.2699682 19.185547 5.1816406 C 19.328509 5.1597194 19.460177 5.1517146 19.574219 5.15625 z M 6.8710938 5.8457031 A 0.60006 0.60006 0 0 0 6.8066406 5.8476562 A 0.60006 0.60006 0 0 0 6.5917969 5.90625 C 5.9860463 6.1938721 5.2754513 6.4916859 4.6875 6.7714844 C 4.3935246 6.9113269 4.1276881 7.0469527 3.9042969 7.1914062 C 3.6809056 7.3357842 3.4414921 7.4255252 3.3300781 7.8710938 C 3.2978236 7.9999756 3.1209267 8.6577523 2.9902344 9.40625 C 2.8595425 10.154785 2.7417866 10.984271 2.9160156 11.701172 A 0.60068492 0.60068492 0 1 0 4.0820312 11.414062 C 4.0047437 11.096204 4.0498198 10.301231 4.1699219 9.6132812 C 4.2785853 8.9909113 4.4063521 8.5243189 4.4648438 8.296875 C 4.4768079 8.2794345 4.500868 8.2429772 4.5625 8.203125 C 4.7033668 8.1120384 4.9326464 7.9851065 5.2050781 7.8554688 C 5.7499394 7.5961932 6.4651258 7.2981781 7.109375 6.9921875 A 0.60006 0.60006 0 0 0 6.8710938 5.8457031 z M 21.068359 6.296875 L 21.068359 6.2988281 C 21.125513 6.3139462 21.557938 6.6458579 22.197266 7.4648438 C 22.33704 7.8813477 22.434437 8.4032883 22.441406 8.8671875 C 22.448393 9.3323628 22.339855 9.7269944 22.310547 9.7988281 C 22.286683 9.8130668 22.236204 9.843119 22.152344 9.8652344 C 21.980349 9.9109667 21.714367 9.9461973 21.408203 9.9609375 C 20.795875 9.9911737 20.027913 9.9406371 19.400391 9.8710938 C 19.185695 9.8484166 19.141043 9.7968684 19.111328 9.7617188 C 19.081621 9.727703 19.049979 9.6508665 19.037109 9.5019531 C 19.011371 9.2045043 19.115907 8.7546169 19.140625 8.3144531 C 19.151623 8.1186736 19.310038 7.8085962 19.591797 7.4882812 C 19.861474 7.1817616 20.219129 6.8814421 20.550781 6.6308594 A 0.60006 0.60006 0 0 0 20.595703 6.59375 A 0.60006 0.60006 0 0 0 20.603516 6.59375 C 20.790391 6.4535295 20.930015 6.3484055 21.001953 6.3125 C 21.073889 6.2784843 21.038131 6.2893159 21.068359 6.296875 z M 9.0644531 6.703125 L 9.0644531 6.7050781 A 0.60006 0.60006 0 0 0 8.6210938 6.9472656 C 8.2704027 7.4095397 7.6860673 8.2026598 7.1816406 8.9414062 C 6.929429 9.3106661 6.7042273 9.6654173 6.5253906 9.9667969 C 6.4359708 10.1176 6.3582507 10.252469 6.296875 10.380859 C 6.2354993 10.509363 6.1737832 10.602021 6.15625 10.830078 C 6.1355382 11.099558 6.1811799 11.285277 6.2304688 11.591797 C 6.2797538 11.898317 6.3492403 12.260994 6.4296875 12.625 C 6.5101347 12.988969 6.595185 13.349265 6.6875 13.658203 C 6.7798187 13.966991 6.8210307 14.180004 7.0273438 14.455078 A 0.60089185 0.60089185 0 1 0 7.9863281 13.732422 C 8.0520125 13.820107 7.919399 13.584703 7.8398438 13.318359 C 7.7602847 13.052281 7.6715053 12.708227 7.5957031 12.365234 C 7.5199009 12.022053 7.4565717 11.674948 7.4121094 11.398438 C 7.3721803 11.149984 7.3630867 10.9677 7.3574219 10.96875 C 7.3627024 10.952941 7.3689545 10.933434 7.3828125 10.904297 C 7.4189826 10.828328 7.4727189 10.711606 7.5507812 10.580078 C 7.706906 10.317023 7.9358071 9.9763438 8.1796875 9.6191406 C 8.667448 8.9048099 9.2374095 8.1217155 9.5742188 7.6777344 A 0.60006 0.60006 0 0 0 9.0644531 6.703125 z M 10.888672 8.0625 A 0.60006 0.60006 0 0 0 10.320312 8.5644531 C 10.209179 9.1994894 10.046766 10.237139 9.9277344 11.193359 C 9.8682182 11.67147 9.8186762 12.128916 9.7949219 12.513672 C 9.7711486 12.898428 9.7380573 13.15004 9.8398438 13.496094 C 9.8409848 13.499873 9.8682224 13.572521 9.8769531 13.591797 C 9.885646 13.610695 9.8902359 13.624814 9.8984375 13.642578 C 9.9148784 13.676594 9.9367796 13.711953 9.9589844 13.753906 C 10.003417 13.837812 10.06047 13.948865 10.128906 14.078125 C 10.265778 14.337401 10.445487 14.677211 10.615234 15.039062 A 0.60006 0.60006 0 1 0 11.701172 14.529297 C 11.518874 14.140686 11.33243 13.784526 11.191406 13.517578 C 11.120895 13.384161 11.062685 13.271218 11.021484 13.193359 C 11.009541 13.170682 11.00054 13.158389 10.992188 13.140625 C 11.012106 13.199586 10.971589 12.921925 10.992188 12.587891 C 11.013353 12.245087 11.059516 11.803138 11.117188 11.339844 C 11.232531 10.413255 11.400192 9.3864513 11.507812 8.7714844 A 0.60006 0.60006 0 0 0 10.888672 8.0625 z M 13.332031 9.0820312 A 0.60006 0.60006 0 0 0 12.734375 9.6269531 C 12.674122 10.169202 12.725506 10.969341 12.814453 11.761719 C 12.858923 12.157889 12.909982 12.537462 12.976562 12.867188 C 13.043139 13.196762 13.091173 13.439039 13.257812 13.716797 A 0.60006 0.60006 0 1 0 14.283203 13.103516 C 14.309206 13.14698 14.214673 12.912498 14.158203 12.632812 C 14.101733 12.353127 14.045375 11.998355 14.003906 11.628906 C 13.920968 10.890009 13.89619 10.061259 13.929688 9.7597656 A 0.60006 0.60006 0 0 0 13.332031 9.0820312 z "
       transform="matrix(0.26458333,0,0,0.26458333,0,290.65)"
       id="path1029" />
    <path
       style="color:#000000;overflow:visible;vector-effect:none;fill:#ffffff;fill-opacity:0.80000001;stroke:none;stroke-width:0.37041664;stroke-linecap:round;stroke-linejoin:round;stroke-miterlimit:4;stroke-dasharray:none;stroke-opacity:0.9938838;paint-order:fill markers stroke"
       d="m 1.0583332,295.4125 v -0.26459 l 0.5291667,10e-6 v 1.05833 h 0.2645834 v 0.26458 h -0.7937501 v -0.26458 h 0.2645833 v -0.79375 z"
       id="path1039"
       inkscape:connector-curvature="0"
       sodipodi:nodetypes="ccccccccccc" />
    <path
       style="color:#000000;overflow:visible;vector-effect:none;fill:#ffffff;fill-opacity:0.80000001;stroke:none;stroke-width:0.37041664;stroke-linecap:round;stroke-linejoin:round;stroke-miterlimit:4;stroke-dasharray:none;stroke-opacity:0.9938838;paint-order:fill markers stroke"
       d="m 0.26458333,294.61875 -0.264583305,0.26459 v 0.79375 l 0.264583305,0.26458 h 0.26458333 l 0.26458332,-0.26458 v -0.79375 l -0.26458332,-0.26459 z m 0,0.26459 h 0.26458333 v 0.79375 h -0.26458333 z"
       id="path1041"
       inkscape:connector-curvature="0" />
    <path
       inkscape:connector-curvature="0"
       id="path1048"
       d="m 3.4395831,295.67708 -0.2645833,0.26459 v 0.79375 l 0.2645833,0.26458 h 0.2645835 l 0.2645832,-0.26458 v -0.79375 l -0.2645832,-0.26459 z m 0,0.26459 h 0.2645835 v 0.79375 h -0.2645833 z"
       style="color:#000000;overflow:visible;vector-effect:none;fill:#ffffff;fill-opacity:0.80000001;stroke:none;stroke-width:0.37041664;stroke-linecap:round;stroke-linejoin:round;stroke-miterlimit:4;stroke-dasharray:none;stroke-opacity:0.9938838;paint-order:fill markers stroke" />
    <path
       sodipodi:nodetypes="ccccccccccc"
       inkscape:connector-curvature="0"
       id="path1052"
       d="m 2.1166666,295.4125 v -0.26459 l 0.5291668,10e-6 v 1.05833 h 0.2645833 v 0.26458 h -0.7937501 v -0.26458 h 0.2645833 v -0.79375 z"
       style="color:#000000;overflow:visible;vector-effect:none;fill:#ffffff;fill-opacity:0.8;stroke:none;stroke-width:0.37041664;stroke-linecap:round;stroke-linejoin:round;stroke-miterlimit:4;stroke-dasharray:none;stroke-opacity:0.9938838;paint-order:fill markers stroke" />
  </g>
</svg>
