<?xml version="1.0" encoding="UTF-8" standalone="no"?>
<!DOCTYPE svg PUBLIC "-//W3C//DTD SVG 1.1//EN" "http://www.w3.org/Graphics/SVG/1.1/DTD/svg11.dtd">
<svg width="100%" height="100%" viewBox="0 0 1080 1080" version="1.1" xmlns="http://www.w3.org/2000/svg" xmlns:xlink="http://www.w3.org/1999/xlink" xml:space="preserve" xmlns:serif="http://www.serif.com/" style="fill-rule:evenodd;clip-rule:evenodd;">
    <g id="rect2264" transform="matrix(0.620111,0,0,0.774074,52.9615,267.795)">
        <path d="M675.5,-196.874C675.5,-200.439 671.887,-203.333 667.437,-203.333L408.563,-203.333C404.113,-203.333 400.5,-200.439 400.5,-196.874L400.5,-64.793C400.5,-61.228 404.113,-58.333 408.563,-58.333L667.437,-58.333C671.887,-58.333 675.5,-61.228 675.5,-64.793L675.5,-196.874Z" style="fill:white;stroke:rgb(211,96,39);stroke-width:1px;"/>
    </g>
    <g id="rect22641" serif:id="rect2264" transform="matrix(0.620111,0,0,0.774074,342.962,267.795)">
        <path d="M675.5,-196.874C675.5,-200.439 671.887,-203.333 667.437,-203.333L408.563,-203.333C404.113,-203.333 400.5,-200.439 400.5,-196.874L400.5,-64.793C400.5,-61.228 404.113,-58.333 408.563,-58.333L667.437,-58.333C671.887,-58.333 675.5,-61.228 675.5,-64.793L675.5,-196.874Z" style="fill:white;stroke:rgb(147,13,242);stroke-width:1px;"/>
    </g>
    <g id="rect22642" serif:id="rect2264" transform="matrix(0.620111,0,0,0.774074,602.962,267.795)">
        <path d="M675.5,-196.874C675.5,-200.439 671.887,-203.333 667.437,-203.333L408.563,-203.333C404.113,-203.333 400.5,-200.439 400.5,-196.874L400.5,-64.793C400.5,-61.228 404.113,-58.333 408.563,-58.333L667.437,-58.333C671.887,-58.333 675.5,-61.228 675.5,-64.793L675.5,-196.874Z" style="fill:white;stroke:rgb(147,13,242);stroke-width:1px;"/>
    </g>
    <g id="rect22643" serif:id="rect2264" transform="matrix(0.620111,0,0,0.774074,342.962,487.795)">
        <path d="M675.5,-196.874C675.5,-200.439 671.887,-203.333 667.437,-203.333L408.563,-203.333C404.113,-203.333 400.5,-200.439 400.5,-196.874L400.5,-64.793C400.5,-61.228 404.113,-58.333 408.563,-58.333L667.437,-58.333C671.887,-58.333 675.5,-61.228 675.5,-64.793L675.5,-196.874Z" style="fill:white;stroke:rgb(77,179,124);stroke-width:1px;"/>
    </g>
    <g id="rect22644" serif:id="rect2264" transform="matrix(0.620111,0,0,0.774074,602.962,487.795)">
        <path d="M675.5,-196.874C675.5,-200.439 671.887,-203.333 667.437,-203.333L408.563,-203.333C404.113,-203.333 400.5,-200.439 400.5,-196.874L400.5,-64.793C400.5,-61.228 404.113,-58.333 408.563,-58.333L667.437,-58.333C671.887,-58.333 675.5,-61.228 675.5,-64.793L675.5,-196.874Z" style="fill:white;stroke:rgb(77,179,124);stroke-width:1px;"/>
    </g>
    <g id="rect22645" serif:id="rect2264" transform="matrix(0.620111,0,0,0.774074,342.962,697.795)">
        <path d="M675.5,-196.874C675.5,-200.439 671.887,-203.333 667.437,-203.333L408.563,-203.333C404.113,-203.333 400.5,-200.439 400.5,-196.874L400.5,-64.793C400.5,-61.228 404.113,-58.333 408.563,-58.333L667.437,-58.333C671.887,-58.333 675.5,-61.228 675.5,-64.793L675.5,-196.874Z" style="fill:white;stroke:rgb(64,79,191);stroke-width:1px;"/>
    </g>
    <g id="rect22646" serif:id="rect2264" transform="matrix(0.620111,0,0,0.774074,602.962,697.795)">
        <path d="M675.5,-196.874C675.5,-200.439 671.887,-203.333 667.437,-203.333L408.563,-203.333C404.113,-203.333 400.5,-200.439 400.5,-196.874L400.5,-64.793C400.5,-61.228 404.113,-58.333 408.563,-58.333L667.437,-58.333C671.887,-58.333 675.5,-61.228 675.5,-64.793L675.5,-196.874Z" style="fill:white;stroke:rgb(64,79,191);stroke-width:1px;"/>
    </g>
    <g id="rect22647" serif:id="rect2264" transform="matrix(0.620111,0,0,0.774074,342.962,907.795)">
        <path d="M675.5,-196.874C675.5,-200.439 671.887,-203.333 667.437,-203.333L408.563,-203.333C404.113,-203.333 400.5,-200.439 400.5,-196.874L400.5,-64.793C400.5,-61.228 404.113,-58.333 408.563,-58.333L667.437,-58.333C671.887,-58.333 675.5,-61.228 675.5,-64.793L675.5,-196.874Z" style="fill:white;stroke:rgb(229,242,13);stroke-width:1px;"/>
    </g>
    <g id="rect22648" serif:id="rect2264" transform="matrix(0.620111,0,0,0.774074,602.962,907.795)">
        <path d="M675.5,-196.874C675.5,-200.439 671.887,-203.333 667.437,-203.333L408.563,-203.333C404.113,-203.333 400.5,-200.439 400.5,-196.874L400.5,-64.793C400.5,-61.228 404.113,-58.333 408.563,-58.333L667.437,-58.333C671.887,-58.333 675.5,-61.228 675.5,-64.793L675.5,-196.874Z" style="fill:white;stroke:rgb(229,242,13);stroke-width:1px;"/>
    </g>
    <g id="rect22649" serif:id="rect2264" transform="matrix(0.620111,0,0,0.774074,52.9615,487.795)">
        <path d="M675.5,-196.874C675.5,-200.439 671.887,-203.333 667.437,-203.333L408.563,-203.333C404.113,-203.333 400.5,-200.439 400.5,-196.874L400.5,-64.793C400.5,-61.228 404.113,-58.333 408.563,-58.333L667.437,-58.333C671.887,-58.333 675.5,-61.228 675.5,-64.793L675.5,-196.874Z" style="fill:white;stroke:rgb(211,96,39);stroke-width:1px;"/>
    </g>
    <g id="rect226410" serif:id="rect2264" transform="matrix(0.620111,0,0,0.774074,52.9615,697.795)">
        <path d="M675.5,-196.874C675.5,-200.439 671.887,-203.333 667.437,-203.333L408.563,-203.333C404.113,-203.333 400.5,-200.439 400.5,-196.874L400.5,-64.793C400.5,-61.228 404.113,-58.333 408.563,-58.333L667.437,-58.333C671.887,-58.333 675.5,-61.228 675.5,-64.793L675.5,-196.874Z" style="fill:white;stroke:rgb(211,96,39);stroke-width:1px;"/>
    </g>
    <g id="rect226411" serif:id="rect2264" transform="matrix(0.620111,0,0,0.774074,52.9615,907.795)">
        <path d="M675.5,-196.874C675.5,-200.439 671.887,-203.333 667.437,-203.333L408.563,-203.333C404.113,-203.333 400.5,-200.439 400.5,-196.874L400.5,-64.793C400.5,-61.228 404.113,-58.333 408.563,-58.333L667.437,-58.333C671.887,-58.333 675.5,-61.228 675.5,-64.793L675.5,-196.874Z" style="fill:white;stroke:rgb(211,96,39);stroke-width:1px;"/>
    </g>
    <g id="text12">
    </g>
    <g id="rect226412" serif:id="rect2264" transform="matrix(0.620111,0,0,0.774074,-207.038,267.795)">
        <path d="M675.5,-196.874C675.5,-200.439 671.887,-203.333 667.437,-203.333L408.563,-203.333C404.113,-203.333 400.5,-200.439 400.5,-196.874L400.5,-64.793C400.5,-61.228 404.113,-58.333 408.563,-58.333L667.437,-58.333C671.887,-58.333 675.5,-61.228 675.5,-64.793L675.5,-196.874Z" style="fill:white;stroke:rgb(5,80,124);stroke-width:1px;"/>
    </g>
    <g id="text121" serif:id="text12" transform="matrix(0.595947,0,0,0.571695,-252.754,222.814)">
        <g transform="matrix(2.40669,0,0,2.40669,569.262,-232.459)">
            <text x="0px" y="0px" style="font-family:'Roboto-Regular', 'Roboto';font-size:11.629px;fill:rgb(102,102,102);">Root f<tspan x="31.003px " y="0px ">e</tspan>ed</text>
        </g>
    </g>
    <g id="text122" serif:id="text12" transform="matrix(0.595947,0,0,0.571695,-282.754,282.814)">
        <g transform="matrix(2.30875,0,0,2.40669,570.407,-229.275)">
            <text x="11.603px" y="0px" style="font-family:'Roboto-Regular', 'Roboto';font-size:11.629px;fill:rgb(102,102,102);">Root f<tspan x="42.606px " y="0px ">e</tspan>ed posts</text>
            <text x="1.843px" y="13.955px" style="font-family:'Roboto-LightItalic', 'Roboto';font-weight:300;font-style:italic;font-size:11.629px;fill:rgb(102,102,102);">metaf<tspan x="31.215px " y="13.955px ">e</tspan>ed/announce</text>
            <text x="27.249px" y="27.909px" style="font-family:'Roboto-Regular', 'Roboto';font-size:11.629px;fill:rgb(102,102,102);">message.</text>
        </g>
    </g>
    <g id="text123" serif:id="text12" transform="matrix(0.595947,0,0,0.571695,-25.3891,282.814)">
        <g transform="matrix(2.30875,0,0,2.40669,570.407,-229.275)">
            <text x="11.935px" y="0px" style="font-family:'Roboto-Regular', 'Roboto';font-size:11.629px;fill:rgb(102,102,102);">Metaf<tspan x="42.274px " y="0px ">e</tspan>ed posts</text>
            <text x="-4.489px" y="13.955px" style="font-family:'Roboto-LightItalic', 'Roboto';font-weight:300;font-style:italic;font-size:11.629px;fill:rgb(102,102,102);">metaf<tspan x="24.884px " y="13.955px ">e</tspan>ed/add/existing</text>
            <text x="27.249px" y="27.909px" style="font-family:'Roboto-Regular', 'Roboto';font-size:11.629px;fill:rgb(102,102,102);">message.</text>
        </g>
    </g>
    <g id="text124" serif:id="text12" transform="matrix(0.595947,0,0,0.571695,-25.3891,502.814)">
        <g transform="matrix(2.30875,0,0,2.40669,570.407,-229.275)">
            <text x="11.935px" y="0px" style="font-family:'Roboto-Regular', 'Roboto';font-size:11.629px;fill:rgb(102,102,102);">Metaf<tspan x="42.274px " y="0px ">e</tspan>ed posts</text>
            <text x="-4.489px" y="13.955px" style="font-family:'Roboto-LightItalic', 'Roboto';font-weight:300;font-style:italic;font-size:11.629px;fill:rgb(102,102,102);">metaf<tspan x="24.884px " y="13.955px ">e</tspan>ed/add/existing</text>
            <text x="27.249px" y="27.909px" style="font-family:'Roboto-Regular', 'Roboto';font-size:11.629px;fill:rgb(102,102,102);">message.</text>
        </g>
    </g>
    <g id="text125" serif:id="text12" transform="matrix(0.595947,0,0,0.571695,-25.3891,712.814)">
        <g transform="matrix(2.30875,0,0,2.40669,570.407,-229.275)">
            <text x="11.935px" y="0px" style="font-family:'Roboto-Regular', 'Roboto';font-size:11.629px;fill:rgb(102,102,102);">Metaf<tspan x="42.274px " y="0px ">e</tspan>ed posts</text>
            <text x="-3.313px" y="13.955px" style="font-family:'Roboto-LightItalic', 'Roboto';font-weight:300;font-style:italic;font-size:11.629px;fill:rgb(102,102,102);">metaf<tspan x="26.06px " y="13.955px ">e</tspan>ed/add/derived</text>
            <text x="27.249px" y="27.909px" style="font-family:'Roboto-Regular', 'Roboto';font-size:11.629px;fill:rgb(102,102,102);">message.</text>
        </g>
        <g transform="matrix(2.30875,0,0,2.40669,1056.85,-964.633)">
            <text x="1.615px" y="0px" style="font-family:'Roboto-Regular', 'Roboto';font-size:11.629px;fill:rgb(102,102,102);">Application-speciﬁc</text>
            <text x="0.426px" y="13.955px" style="font-family:'Roboto-Regular', 'Roboto';font-size:11.629px;fill:rgb(102,102,102);">message in subf<tspan x="85.609px " y="13.955px ">e</tspan>ed</text>
        </g>
        <g transform="matrix(2.30875,0,0,2.40669,1493.13,-964.633)">
            <text x="1.615px" y="0px" style="font-family:'Roboto-Regular', 'Roboto';font-size:11.629px;fill:rgb(102,102,102);">Application-speciﬁc</text>
            <text x="0.426px" y="13.955px" style="font-family:'Roboto-Regular', 'Roboto';font-size:11.629px;fill:rgb(102,102,102);">message in subf<tspan x="85.609px " y="13.955px ">e</tspan>ed</text>
        </g>
    </g>
    <g id="text126" serif:id="text12" transform="matrix(0.595947,0,0,0.571695,-25.3891,922.814)">
        <g transform="matrix(2.30875,0,0,2.40669,570.407,-229.275)">
            <text x="11.935px" y="0px" style="font-family:'Roboto-Regular', 'Roboto';font-size:11.629px;fill:rgb(102,102,102);">Metaf<tspan x="42.274px " y="0px ">e</tspan>ed posts</text>
            <text x="-4.489px" y="13.955px" style="font-family:'Roboto-LightItalic', 'Roboto';font-weight:300;font-style:italic;font-size:11.629px;fill:rgb(102,102,102);">metaf<tspan x="24.884px " y="13.955px ">e</tspan>ed/add/existing</text>
            <text x="27.249px" y="27.909px" style="font-family:'Roboto-Regular', 'Roboto';font-size:11.629px;fill:rgb(102,102,102);">message.</text>
        </g>
    </g>
    <g transform="matrix(4.17714e-17,-0.419383,0.6082,1.94723e-17,12.1776,295.534)">
        <g transform="matrix(7.63415e-17,1.64419,-2.38446,1.63765e-16,704.688,-20.0224)">
            <path d="M297.114,162.02L300.114,166.52L297.114,171.02L297.114,162.02Z" style="fill:none;stroke:rgb(102,102,102);stroke-width:2px;stroke-linecap:round;stroke-miterlimit:10;"/>
            <path d="M211.847,166.52L297.114,166.52" style="fill:none;stroke:rgb(102,102,102);stroke-width:2px;stroke-linecap:round;stroke-linejoin:round;stroke-miterlimit:1.5;"/>
        </g>
    </g>
    <g transform="matrix(5.55302e-17,-0.419383,0.80853,1.94723e-17,206.941,295.534)">
        <g transform="matrix(5.74263e-17,1.23681,-2.38446,1.63765e-16,704.688,-255.947)">
            <path d="M587.114,162.02L590.114,166.52L587.114,171.02L587.114,162.02Z" style="fill:none;stroke:rgb(102,102,102);stroke-width:2px;stroke-linecap:round;stroke-miterlimit:10;"/>
            <path d="M472.377,166.52L587.114,166.52" style="fill:none;stroke:rgb(102,102,102);stroke-width:2px;stroke-linecap:round;stroke-linejoin:round;stroke-miterlimit:1.5;"/>
        </g>
    </g>
    <g transform="matrix(0.419383,2.70446e-17,3.00359e-17,0.732532,265.661,-17.8457)">
        <g transform="matrix(2.38446,-8.80324e-17,-9.77694e-17,1.36513,-633.457,24.3617)">
            <path d="M399.175,326.198L394.675,329.198L390.175,326.198L399.175,326.198Z" style="fill:none;stroke:rgb(102,102,102);stroke-width:2px;stroke-linecap:round;stroke-miterlimit:10;"/>
            <path d="M394.675,222.641L394.675,326.198" style="fill:none;stroke:rgb(102,102,102);stroke-width:2px;stroke-linecap:round;stroke-linejoin:round;stroke-miterlimit:1.5;"/>
        </g>
    </g>
    <g transform="matrix(0.419383,2.45348e-17,3.00359e-17,0.664553,265.661,224.471)">
        <g transform="matrix(2.38446,-8.80324e-17,-1.0777e-16,1.50477,-633.457,-337.778)">
            <path d="M399.175,536.198L394.675,539.198L390.175,536.198L399.175,536.198Z" style="fill:none;stroke:rgb(102,102,102);stroke-width:2px;stroke-linecap:round;stroke-miterlimit:10;"/>
            <path d="M394.675,442.641L394.675,536.198" style="fill:none;stroke:rgb(102,102,102);stroke-width:2px;stroke-linecap:round;stroke-linejoin:round;stroke-miterlimit:1.5;"/>
        </g>
    </g>
    <g transform="matrix(0.419383,2.45348e-17,3.00359e-17,0.664553,265.661,434.471)">
        <g transform="matrix(2.38446,-8.80324e-17,-1.0777e-16,1.50477,-633.457,-653.779)">
            <path d="M399.175,746.198L394.675,749.198L390.175,746.198L399.175,746.198Z" style="fill:none;stroke:rgb(102,102,102);stroke-width:2px;stroke-linecap:round;stroke-miterlimit:10;"/>
            <path d="M394.675,652.641L394.675,746.198" style="fill:none;stroke:rgb(102,102,102);stroke-width:2px;stroke-linecap:round;stroke-linejoin:round;stroke-miterlimit:1.5;"/>
        </g>
    </g>
    <g transform="matrix(4.17714e-17,-0.419383,0.6082,1.94723e-17,562.178,295.534)">
        <g transform="matrix(7.63415e-17,1.64419,-2.38446,1.63765e-16,704.688,-924.33)">
            <path d="M847.114,162.02L850.114,166.52L847.114,171.02L847.114,162.02Z" style="fill:none;stroke:rgb(102,102,102);stroke-width:2px;stroke-linecap:round;stroke-miterlimit:10;"/>
            <path d="M761.847,166.52L847.114,166.52" style="fill:none;stroke:rgb(102,102,102);stroke-width:2px;stroke-linecap:round;stroke-linejoin:round;stroke-miterlimit:1.5;"/>
        </g>
    </g>
    <g transform="matrix(5.55302e-17,-0.419383,0.80853,1.94723e-17,206.941,515.534)">
        <g transform="matrix(5.74263e-17,1.23681,-2.38446,1.63765e-16,1229.27,-255.947)">
            <path d="M587.114,382.02L590.114,386.52L587.114,391.02L587.114,382.02Z" style="fill:none;stroke:rgb(102,102,102);stroke-width:2px;stroke-linecap:round;stroke-miterlimit:10;"/>
            <path d="M472.377,386.52L587.114,386.52" style="fill:none;stroke:rgb(102,102,102);stroke-width:2px;stroke-linecap:round;stroke-linejoin:round;stroke-miterlimit:1.5;"/>
        </g>
    </g>
    <g transform="matrix(4.17714e-17,-0.419383,0.6082,1.94723e-17,562.178,515.534)">
        <g transform="matrix(7.63415e-17,1.64419,-2.38446,1.63765e-16,1229.27,-924.33)">
            <path d="M847.114,382.02L850.114,386.52L847.114,391.02L847.114,382.02Z" style="fill:none;stroke:rgb(102,102,102);stroke-width:2px;stroke-linecap:round;stroke-miterlimit:10;"/>
            <path d="M761.847,386.52L847.114,386.52" style="fill:none;stroke:rgb(102,102,102);stroke-width:2px;stroke-linecap:round;stroke-linejoin:round;stroke-miterlimit:1.5;"/>
        </g>
    </g>
    <g transform="matrix(5.55302e-17,-0.419383,0.80853,1.94723e-17,206.941,725.534)">
        <g transform="matrix(5.74263e-17,1.23681,-2.38446,1.63765e-16,1730,-255.947)">
            <path d="M587.114,592.02L590.114,596.52L587.114,601.02L587.114,592.02Z" style="fill:none;stroke:rgb(102,102,102);stroke-width:2px;stroke-linecap:round;stroke-miterlimit:10;"/>
            <path d="M472.377,596.52L587.114,596.52" style="fill:none;stroke:rgb(102,102,102);stroke-width:2px;stroke-linecap:round;stroke-linejoin:round;stroke-miterlimit:1.5;"/>
        </g>
    </g>
    <g transform="matrix(4.17714e-17,-0.419383,0.6082,1.94723e-17,562.178,725.534)">
        <g transform="matrix(7.63415e-17,1.64419,-2.38446,1.63765e-16,1730,-924.33)">
            <path d="M847.114,592.02L850.114,596.52L847.114,601.02L847.114,592.02Z" style="fill:none;stroke:rgb(102,102,102);stroke-width:2px;stroke-linecap:round;stroke-miterlimit:10;"/>
            <path d="M761.847,596.52L847.114,596.52" style="fill:none;stroke:rgb(102,102,102);stroke-width:2px;stroke-linecap:round;stroke-linejoin:round;stroke-miterlimit:1.5;"/>
        </g>
    </g>
    <g transform="matrix(5.55302e-17,-0.419383,0.80853,1.94723e-17,206.941,935.534)">
        <g transform="matrix(5.74263e-17,1.23681,-2.38446,1.63765e-16,2230.74,-255.947)">
            <path d="M587.114,802.02L590.114,806.52L587.114,811.02L587.114,802.02Z" style="fill:none;stroke:rgb(102,102,102);stroke-width:2px;stroke-linecap:round;stroke-miterlimit:10;"/>
            <path d="M472.377,806.52L587.114,806.52" style="fill:none;stroke:rgb(102,102,102);stroke-width:2px;stroke-linecap:round;stroke-linejoin:round;stroke-miterlimit:1.5;"/>
        </g>
    </g>
    <g transform="matrix(4.17714e-17,-0.419383,0.6082,1.94723e-17,562.178,935.534)">
        <g transform="matrix(7.63415e-17,1.64419,-2.38446,1.63765e-16,2230.74,-924.33)">
            <path d="M847.114,802.02L850.114,806.52L847.114,811.02L847.114,802.02Z" style="fill:none;stroke:rgb(102,102,102);stroke-width:2px;stroke-linecap:round;stroke-miterlimit:10;"/>
            <path d="M761.847,806.52L847.114,806.52" style="fill:none;stroke:rgb(102,102,102);stroke-width:2px;stroke-linecap:round;stroke-linejoin:round;stroke-miterlimit:1.5;"/>
        </g>
    </g>
    <g id="path4592" transform="matrix(-5.02489e-16,2.73542,0.630547,1.1583e-16,420.801,-985.136)">
        <path d="M400.5,-205.354L400.5,-233.333L675.5,-233.333L675.5,-207.964" style="fill:none;fill-rule:nonzero;stroke:rgb(128,128,128);stroke-width:0.5px;"/>
    </g>
    <g id="text127" serif:id="text12" transform="matrix(6.12323e-17,-1,1,6.12323e-17,507.801,891.946)">
        <g transform="matrix(1,0,0,1,384,-246.833)">
            <text x="0px" y="0px" style="font-family:'Roboto-Regular', 'Roboto';font-size:16px;fill:rgb(102,102,102);">Metaf<tspan x="41.742px " y="0px ">e</tspan>ed</text>
        </g>
    </g>
    <g id="path45921" serif:id="path4592" transform="matrix(1.54828,0,0,0.802676,-26.2069,277.384)">
        <path d="M400.5,-218.911L400.5,-233.333L675.5,-233.333L675.5,-219.901" style="fill:none;fill-rule:nonzero;stroke:rgb(128,128,128);stroke-width:0.74px;"/>
    </g>
    <g transform="matrix(0.802784,0,0,0.802784,770.568,77.0057)">
        <g id="text6981">
            <text x="0px" y="0px" style="font-family:'Roboto-Regular', 'Roboto';font-size:19.931px;fill:rgb(102,102,102);">Subf<tspan x="40.679px " y="0px ">e</tspan>ed A</text>
        </g>
    </g>
    <g id="path45922" serif:id="path4592" transform="matrix(1.54828,0,0,0.802676,-26.2069,497.384)">
        <path d="M400.5,-218.911L400.5,-233.333L675.5,-233.333L675.5,-219.901" style="fill:none;fill-rule:nonzero;stroke:rgb(128,128,128);stroke-width:0.74px;"/>
    </g>
    <g transform="matrix(0.802784,0,0,0.802784,770.568,297.006)">
        <g id="text69811" serif:id="text6981">
            <text x="0px" y="0px" style="font-family:'Roboto-Regular', 'Roboto';font-size:19.931px;fill:rgb(102,102,102);">Subf<tspan x="40.679px " y="0px ">e</tspan>ed B</text>
        </g>
    </g>
    <g id="path45923" serif:id="path4592" transform="matrix(1.54828,0,0,0.802676,-26.2069,707.384)">
        <path d="M400.5,-218.911L400.5,-233.333L675.5,-233.333L675.5,-219.901" style="fill:none;fill-rule:nonzero;stroke:rgb(128,128,128);stroke-width:0.74px;"/>
    </g>
    <g transform="matrix(0.802784,0,0,0.802784,770.568,507.006)">
        <g id="text69812" serif:id="text6981">
            <text x="0px" y="0px" style="font-family:'Roboto-Regular', 'Roboto';font-size:19.931px;fill:rgb(102,102,102);">Subf<tspan x="40.679px " y="0px ">e</tspan>ed C</text>
        </g>
    </g>
    <g id="path45924" serif:id="path4592" transform="matrix(1.54828,0,0,0.802676,-26.2069,917.384)">
        <path d="M400.5,-218.911L400.5,-233.333L675.5,-233.333L675.5,-219.901" style="fill:none;fill-rule:nonzero;stroke:rgb(128,128,128);stroke-width:0.74px;"/>
    </g>
    <g transform="matrix(0.802784,0,0,0.802784,770.568,717.006)">
        <g id="text69813" serif:id="text6981">
            <text x="0px" y="0px" style="font-family:'Roboto-Regular', 'Roboto';font-size:19.931px;fill:rgb(102,102,102);">Subf<tspan x="40.679px " y="0px ">e</tspan>ed D</text>
        </g>
    </g>
    <g transform="matrix(1.37589,0,0,1.37589,604.437,381.338)">
        <text x="1.615px" y="0px" style="font-family:'Roboto-Regular', 'Roboto';font-size:11.629px;fill:rgb(102,102,102);">Application-speciﬁc</text>
        <text x="0.426px" y="13.955px" style="font-family:'Roboto-Regular', 'Roboto';font-size:11.629px;fill:rgb(102,102,102);">message in subf<tspan x="85.609px " y="13.955px ">e</tspan>ed</text>
    </g>
    <g transform="matrix(1.37589,0,0,1.37589,864.437,381.338)">
        <text x="1.615px" y="0px" style="font-family:'Roboto-Regular', 'Roboto';font-size:11.629px;fill:rgb(102,102,102);">Application-speciﬁc</text>
        <text x="0.426px" y="13.955px" style="font-family:'Roboto-Regular', 'Roboto';font-size:11.629px;fill:rgb(102,102,102);">message in subf<tspan x="85.609px " y="13.955px ">e</tspan>ed</text>
    </g>
    <g transform="matrix(1.37589,0,0,1.37589,604.437,591.338)">
        <text x="1.615px" y="0px" style="font-family:'Roboto-Regular', 'Roboto';font-size:11.629px;fill:rgb(102,102,102);">Application-speciﬁc</text>
        <text x="0.426px" y="13.955px" style="font-family:'Roboto-Regular', 'Roboto';font-size:11.629px;fill:rgb(102,102,102);">message in subf<tspan x="85.609px " y="13.955px ">e</tspan>ed</text>
    </g>
    <g transform="matrix(1.37589,0,0,1.37589,864.437,591.338)">
        <text x="1.615px" y="0px" style="font-family:'Roboto-Regular', 'Roboto';font-size:11.629px;fill:rgb(102,102,102);">Application-speciﬁc</text>
        <text x="0.426px" y="13.955px" style="font-family:'Roboto-Regular', 'Roboto';font-size:11.629px;fill:rgb(102,102,102);">message in subf<tspan x="85.609px " y="13.955px ">e</tspan>ed</text>
    </g>
    <g transform="matrix(1.37589,0,0,1.37589,604.437,801.338)">
        <text x="1.615px" y="0px" style="font-family:'Roboto-Regular', 'Roboto';font-size:11.629px;fill:rgb(102,102,102);">Application-speciﬁc</text>
        <text x="0.426px" y="13.955px" style="font-family:'Roboto-Regular', 'Roboto';font-size:11.629px;fill:rgb(102,102,102);">message in subf<tspan x="85.609px " y="13.955px ">e</tspan>ed</text>
    </g>
    <g transform="matrix(1.37589,0,0,1.37589,864.437,799.338)">
        <text x="1.615px" y="0px" style="font-family:'Roboto-Regular', 'Roboto';font-size:11.629px;fill:rgb(102,102,102);">Application-speciﬁc</text>
        <text x="0.426px" y="13.955px" style="font-family:'Roboto-Regular', 'Roboto';font-size:11.629px;fill:rgb(102,102,102);">message in subf<tspan x="85.609px " y="13.955px ">e</tspan>ed</text>
    </g>
</svg>
