<?xml version="1.0" encoding="UTF-8" standalone="no"?>
<!DOCTYPE svg PUBLIC "-//W3C//DTD SVG 1.1//EN" "http://www.w3.org/Graphics/SVG/1.1/DTD/svg11.dtd">
<svg width="100%" height="100%" viewBox="0 0 1080 1080" version="1.1" xmlns="http://www.w3.org/2000/svg" xmlns:xlink="http://www.w3.org/1999/xlink" xml:space="preserve" xmlns:serif="http://www.serif.com/" style="fill-rule:evenodd;clip-rule:evenodd;">
    <g id="rect2264" transform="matrix(0.784119,0,0,5.95436,-30.9995,1262.24)">
        <path d="M675.5,-202.494C675.5,-202.957 672.643,-203.333 669.123,-203.333L406.877,-203.333C403.357,-203.333 400.5,-202.957 400.5,-202.494L400.5,-59.173C400.5,-58.71 403.357,-58.333 406.877,-58.333L669.123,-58.333C672.643,-58.333 675.5,-58.71 675.5,-59.173L675.5,-202.494Z" style="fill:rgb(217,217,217);stroke:rgb(211,96,39);stroke-width:0.5px;"/>
    </g>
    <g id="rect22641" serif:id="rect2264" transform="matrix(0.721782,0,0,1.44941,-264.082,346.238)">
        <path d="M675.5,-199.884C675.5,-201.788 672.396,-203.333 668.573,-203.333L407.427,-203.333C403.604,-203.333 400.5,-201.788 400.5,-199.884L400.5,-61.783C400.5,-59.879 403.604,-58.333 407.427,-58.333L668.573,-58.333C672.396,-58.333 675.5,-59.879 675.5,-61.783L675.5,-199.884Z" style="fill:rgb(217,217,217);stroke:rgb(64,79,191);stroke-width:1.73px;"/>
    </g>
    <g id="rect22642" serif:id="rect2264" transform="matrix(1.74026,0,0,1.35436,-126.883,326.91)">
        <path d="M675.5,-199.642C675.5,-201.679 674.213,-203.333 672.627,-203.333L403.373,-203.333C401.787,-203.333 400.5,-201.679 400.5,-199.642L400.5,-62.025C400.5,-59.988 401.787,-58.333 403.373,-58.333L672.627,-58.333C674.213,-58.333 675.5,-59.988 675.5,-62.025L675.5,-199.642Z" style="fill:rgb(217,217,217);stroke:rgb(147,13,242);stroke-width:1.28px;"/>
    </g>
    <g id="rect22643" serif:id="rect2264" transform="matrix(1.74026,0,0,1.35436,-126.883,546.91)">
        <path d="M675.5,-199.642C675.5,-201.679 674.213,-203.333 672.627,-203.333L403.373,-203.333C401.787,-203.333 400.5,-201.679 400.5,-199.642L400.5,-62.025C400.5,-59.988 401.787,-58.333 403.373,-58.333L672.627,-58.333C674.213,-58.333 675.5,-59.988 675.5,-62.025L675.5,-199.642Z" style="fill:rgb(217,217,217);stroke:rgb(77,179,124);stroke-width:1.28px;"/>
    </g>
    <g id="rect22644" serif:id="rect2264" transform="matrix(1.74026,0,0,1.35436,-126.883,766.91)">
        <path d="M675.5,-199.642C675.5,-201.679 674.213,-203.333 672.627,-203.333L403.373,-203.333C401.787,-203.333 400.5,-201.679 400.5,-199.642L400.5,-62.025C400.5,-59.988 401.787,-58.333 403.373,-58.333L672.627,-58.333C674.213,-58.333 675.5,-59.988 675.5,-62.025L675.5,-199.642Z" style="fill:rgb(217,217,217);stroke:rgb(217,38,38);stroke-width:1.28px;"/>
    </g>
    <g id="rect22645" serif:id="rect2264" transform="matrix(1.74026,0,0,1.40611,-126.883,996.929)">
        <path d="M675.5,-199.777C675.5,-201.74 674.213,-203.333 672.627,-203.333L403.373,-203.333C401.787,-203.333 400.5,-201.74 400.5,-199.777L400.5,-61.889C400.5,-59.927 401.787,-58.333 403.373,-58.333L672.627,-58.333C674.213,-58.333 675.5,-59.927 675.5,-61.889L675.5,-199.777Z" style="fill:rgb(217,217,217);stroke:rgb(229,242,13);stroke-width:1.28px;"/>
    </g>
    <g id="rect22646" serif:id="rect2264" transform="matrix(0.620111,0,0,0.774074,52.9615,267.795)">
        <path d="M675.5,-196.874C675.5,-200.439 671.887,-203.333 667.437,-203.333L408.563,-203.333C404.113,-203.333 400.5,-200.439 400.5,-196.874L400.5,-64.793C400.5,-61.228 404.113,-58.333 408.563,-58.333L667.437,-58.333C671.887,-58.333 675.5,-61.228 675.5,-64.793L675.5,-196.874Z" style="fill:white;stroke:rgb(211,96,39);stroke-width:1px;"/>
    </g>
    <g id="rect22647" serif:id="rect2264" transform="matrix(0.620111,0,0,0.774074,342.962,267.795)">
        <path d="M675.5,-196.874C675.5,-200.439 671.887,-203.333 667.437,-203.333L408.563,-203.333C404.113,-203.333 400.5,-200.439 400.5,-196.874L400.5,-64.793C400.5,-61.228 404.113,-58.333 408.563,-58.333L667.437,-58.333C671.887,-58.333 675.5,-61.228 675.5,-64.793L675.5,-196.874Z" style="fill:white;stroke:rgb(147,13,242);stroke-width:1px;"/>
    </g>
    <g id="rect22648" serif:id="rect2264" transform="matrix(0.620111,0,0,0.774074,602.962,267.795)">
        <path d="M675.5,-196.874C675.5,-200.439 671.887,-203.333 667.437,-203.333L408.563,-203.333C404.113,-203.333 400.5,-200.439 400.5,-196.874L400.5,-64.793C400.5,-61.228 404.113,-58.333 408.563,-58.333L667.437,-58.333C671.887,-58.333 675.5,-61.228 675.5,-64.793L675.5,-196.874Z" style="fill:white;stroke:rgb(147,13,242);stroke-width:1px;"/>
    </g>
    <g id="rect22649" serif:id="rect2264" transform="matrix(0.620111,0,0,0.774074,342.962,487.795)">
        <path d="M675.5,-196.874C675.5,-200.439 671.887,-203.333 667.437,-203.333L408.563,-203.333C404.113,-203.333 400.5,-200.439 400.5,-196.874L400.5,-64.793C400.5,-61.228 404.113,-58.333 408.563,-58.333L667.437,-58.333C671.887,-58.333 675.5,-61.228 675.5,-64.793L675.5,-196.874Z" style="fill:white;stroke:rgb(77,179,124);stroke-width:1px;"/>
    </g>
    <g id="rect226410" serif:id="rect2264" transform="matrix(0.620111,0,0,0.774074,602.962,487.795)">
        <path d="M675.5,-196.874C675.5,-200.439 671.887,-203.333 667.437,-203.333L408.563,-203.333C404.113,-203.333 400.5,-200.439 400.5,-196.874L400.5,-64.793C400.5,-61.228 404.113,-58.333 408.563,-58.333L667.437,-58.333C671.887,-58.333 675.5,-61.228 675.5,-64.793L675.5,-196.874Z" style="fill:white;stroke:rgb(77,179,124);stroke-width:1px;"/>
    </g>
    <g id="rect226411" serif:id="rect2264" transform="matrix(0.620111,0,0,0.774074,342.962,697.795)">
        <path d="M675.5,-196.874C675.5,-200.439 671.887,-203.333 667.437,-203.333L408.563,-203.333C404.113,-203.333 400.5,-200.439 400.5,-196.874L400.5,-64.793C400.5,-61.228 404.113,-58.333 408.563,-58.333L667.437,-58.333C671.887,-58.333 675.5,-61.228 675.5,-64.793L675.5,-196.874Z" style="fill:white;stroke:rgb(217,38,38);stroke-width:1px;"/>
    </g>
    <g id="rect226412" serif:id="rect2264" transform="matrix(0.620111,0,0,0.774074,602.962,697.795)">
        <path d="M675.5,-196.874C675.5,-200.439 671.887,-203.333 667.437,-203.333L408.563,-203.333C404.113,-203.333 400.5,-200.439 400.5,-196.874L400.5,-64.793C400.5,-61.228 404.113,-58.333 408.563,-58.333L667.437,-58.333C671.887,-58.333 675.5,-61.228 675.5,-64.793L675.5,-196.874Z" style="fill:white;stroke:rgb(217,38,38);stroke-width:1px;"/>
    </g>
    <g id="rect226413" serif:id="rect2264" transform="matrix(0.620111,0,0,0.774074,342.962,924.795)">
        <path d="M675.5,-196.874C675.5,-200.439 671.887,-203.333 667.437,-203.333L408.563,-203.333C404.113,-203.333 400.5,-200.439 400.5,-196.874L400.5,-64.793C400.5,-61.228 404.113,-58.333 408.563,-58.333L667.437,-58.333C671.887,-58.333 675.5,-61.228 675.5,-64.793L675.5,-196.874Z" style="fill:white;stroke:rgb(229,242,13);stroke-width:1px;"/>
    </g>
    <g id="rect226414" serif:id="rect2264" transform="matrix(0.620111,0,0,0.774074,602.962,924.795)">
        <path d="M675.5,-196.874C675.5,-200.439 671.887,-203.333 667.437,-203.333L408.563,-203.333C404.113,-203.333 400.5,-200.439 400.5,-196.874L400.5,-64.793C400.5,-61.228 404.113,-58.333 408.563,-58.333L667.437,-58.333C671.887,-58.333 675.5,-61.228 675.5,-64.793L675.5,-196.874Z" style="fill:white;stroke:rgb(229,242,13);stroke-width:1px;"/>
    </g>
    <g id="rect226415" serif:id="rect2264" transform="matrix(0.620111,0,0,0.774074,52.9615,487.795)">
        <path d="M675.5,-196.874C675.5,-200.439 671.887,-203.333 667.437,-203.333L408.563,-203.333C404.113,-203.333 400.5,-200.439 400.5,-196.874L400.5,-64.793C400.5,-61.228 404.113,-58.333 408.563,-58.333L667.437,-58.333C671.887,-58.333 675.5,-61.228 675.5,-64.793L675.5,-196.874Z" style="fill:white;stroke:rgb(211,96,39);stroke-width:1px;"/>
    </g>
    <g id="rect226416" serif:id="rect2264" transform="matrix(0.620111,0,0,0.774074,52.9615,697.795)">
        <path d="M675.5,-196.874C675.5,-200.439 671.887,-203.333 667.437,-203.333L408.563,-203.333C404.113,-203.333 400.5,-200.439 400.5,-196.874L400.5,-64.793C400.5,-61.228 404.113,-58.333 408.563,-58.333L667.437,-58.333C671.887,-58.333 675.5,-61.228 675.5,-64.793L675.5,-196.874Z" style="fill:white;stroke:rgb(211,96,39);stroke-width:1px;"/>
    </g>
    <g id="rect226417" serif:id="rect2264" transform="matrix(0.620111,0,0,0.774074,52.9615,926.795)">
        <path d="M675.5,-196.874C675.5,-200.439 671.887,-203.333 667.437,-203.333L408.563,-203.333C404.113,-203.333 400.5,-200.439 400.5,-196.874L400.5,-64.793C400.5,-61.228 404.113,-58.333 408.563,-58.333L667.437,-58.333C671.887,-58.333 675.5,-61.228 675.5,-64.793L675.5,-196.874Z" style="fill:white;stroke:rgb(211,96,39);stroke-width:1px;"/>
    </g>
    <g id="text12">
    </g>
    <g id="rect226418" serif:id="rect2264" transform="matrix(0.620111,0,0,0.774074,-210.038,267.795)">
        <path d="M675.5,-196.874C675.5,-200.439 671.887,-203.333 667.437,-203.333L408.563,-203.333C404.113,-203.333 400.5,-200.439 400.5,-196.874L400.5,-64.793C400.5,-61.228 404.113,-58.333 408.563,-58.333L667.437,-58.333C671.887,-58.333 675.5,-61.228 675.5,-64.793L675.5,-196.874Z" style="fill:white;stroke:rgb(5,80,124);stroke-width:1px;"/>
    </g>
    <g id="text121" serif:id="text12" transform="matrix(0.595947,0,0,0.571695,-282.754,222.814)">
        <g transform="matrix(2.40669,0,0,2.40669,619.602,-232.459)">
            <text x="0px" y="0px" style="font-family:'Roboto-Regular', 'Roboto';font-size:11.629px;fill:rgb(102,102,102);">Main f<tspan x="32.496px " y="0px ">e</tspan>ed</text>
        </g>
        <g transform="matrix(2.40669,0,0,2.40669,1062.98,-248.456)">
            <text x="0px" y="0px" style="font-family:'Roboto-Regular', 'Roboto';font-size:11.629px;fill:rgb(102,102,102);">Meta f<tspan x="33.217px " y="0px ">e</tspan>ed</text>
        </g>
    </g>
    <g id="text122" serif:id="text12" transform="matrix(0.595947,0,0,0.571695,-285.754,282.814)">
        <g transform="matrix(2.30875,0,0,2.40669,570.407,-229.275)">
            <text x="10.857px" y="0px" style="font-family:'Roboto-Regular', 'Roboto';font-size:11.629px;fill:rgb(102,102,102);">Main f<tspan x="43.352px " y="0px ">e</tspan>ed posts</text>
            <text x="1.843px" y="13.955px" style="font-family:'Roboto-LightItalic', 'Roboto';font-weight:300;font-style:italic;font-size:11.629px;fill:rgb(102,102,102);">metaf<tspan x="31.215px " y="13.955px ">e</tspan>ed/announce</text>
            <text x="27.249px" y="27.909px" style="font-family:'Roboto-Regular', 'Roboto';font-size:11.629px;fill:rgb(102,102,102);">message.</text>
        </g>
    </g>
    <g id="text123" serif:id="text12" transform="matrix(0.595947,0,0,0.571695,-25.3891,282.814)">
        <g transform="matrix(2.30875,0,0,2.40669,570.407,-229.275)">
            <text x="11.935px" y="0px" style="font-family:'Roboto-Regular', 'Roboto';font-size:11.629px;fill:rgb(102,102,102);">Metaf<tspan x="42.274px " y="0px ">e</tspan>ed posts</text>
            <text x="-4.489px" y="13.955px" style="font-family:'Roboto-LightItalic', 'Roboto';font-weight:300;font-style:italic;font-size:11.629px;fill:rgb(102,102,102);">metaf<tspan x="24.884px " y="13.955px ">e</tspan>ed/add/existing</text>
            <text x="27.249px" y="27.909px" style="font-family:'Roboto-Regular', 'Roboto';font-size:11.629px;fill:rgb(102,102,102);">message.</text>
        </g>
    </g>
    <g id="text124" serif:id="text12" transform="matrix(0.595947,0,0,0.571695,-25.3891,502.814)">
        <g transform="matrix(2.30875,0,0,2.40669,570.407,-229.275)">
            <text x="11.935px" y="0px" style="font-family:'Roboto-Regular', 'Roboto';font-size:11.629px;fill:rgb(102,102,102);">Metaf<tspan x="42.274px " y="0px ">e</tspan>ed posts</text>
            <text x="-4.489px" y="13.955px" style="font-family:'Roboto-LightItalic', 'Roboto';font-weight:300;font-style:italic;font-size:11.629px;fill:rgb(102,102,102);">metaf<tspan x="24.884px " y="13.955px ">e</tspan>ed/add/existing</text>
            <text x="27.249px" y="27.909px" style="font-family:'Roboto-Regular', 'Roboto';font-size:11.629px;fill:rgb(102,102,102);">message.</text>
        </g>
    </g>
    <g id="text125" serif:id="text12" transform="matrix(0.595947,0,0,0.571695,-25.3891,712.814)">
        <g transform="matrix(2.30875,0,0,2.40669,570.407,-229.275)">
            <text x="11.935px" y="0px" style="font-family:'Roboto-Regular', 'Roboto';font-size:11.629px;fill:rgb(102,102,102);">Metaf<tspan x="42.274px " y="0px ">e</tspan>ed posts</text>
            <text x="-3.313px" y="13.955px" style="font-family:'Roboto-LightItalic', 'Roboto';font-weight:300;font-style:italic;font-size:11.629px;fill:rgb(102,102,102);">metaf<tspan x="26.06px " y="13.955px ">e</tspan>ed/add/derived</text>
            <text x="27.249px" y="27.909px" style="font-family:'Roboto-Regular', 'Roboto';font-size:11.629px;fill:rgb(102,102,102);">message.</text>
        </g>
        <g transform="matrix(2.30875,0,0,2.40669,1056.85,-964.633)">
            <text x="1.615px" y="0px" style="font-family:'Roboto-Regular', 'Roboto';font-size:11.629px;fill:rgb(102,102,102);">Application-speciﬁc</text>
            <text x="0.426px" y="13.955px" style="font-family:'Roboto-Regular', 'Roboto';font-size:11.629px;fill:rgb(102,102,102);">message in subf<tspan x="85.609px " y="13.955px ">e</tspan>ed</text>
        </g>
        <g transform="matrix(2.30875,0,0,2.40669,1493.13,-964.633)">
            <text x="1.615px" y="0px" style="font-family:'Roboto-Regular', 'Roboto';font-size:11.629px;fill:rgb(102,102,102);">Application-speciﬁc</text>
            <text x="0.426px" y="13.955px" style="font-family:'Roboto-Regular', 'Roboto';font-size:11.629px;fill:rgb(102,102,102);">message in subf<tspan x="85.609px " y="13.955px ">e</tspan>ed</text>
        </g>
    </g>
    <g id="text126" serif:id="text12" transform="matrix(0.595947,0,0,0.571695,-25.3891,941.814)">
        <g transform="matrix(2.30875,0,0,2.40669,570.407,-229.275)">
            <text x="11.935px" y="0px" style="font-family:'Roboto-Regular', 'Roboto';font-size:11.629px;fill:rgb(102,102,102);">Metaf<tspan x="42.274px " y="0px ">e</tspan>ed posts</text>
            <text x="-4.489px" y="13.955px" style="font-family:'Roboto-LightItalic', 'Roboto';font-weight:300;font-style:italic;font-size:11.629px;fill:rgb(102,102,102);">metaf<tspan x="24.884px " y="13.955px ">e</tspan>ed/add/existing</text>
            <text x="27.249px" y="27.909px" style="font-family:'Roboto-Regular', 'Roboto';font-size:11.629px;fill:rgb(102,102,102);">message.</text>
        </g>
    </g>
    <g transform="matrix(2.78065e-17,-0.419383,0.404869,1.94723e-17,90.5655,295.534)">
        <g transform="matrix(1.14681e-16,2.46994,-2.38446,1.63765e-16,704.688,-223.691)">
            <path d="M278.838,162.02L281.838,166.52L278.838,171.02L278.838,162.02Z" style="fill:none;stroke:rgb(102,102,102);stroke-width:2px;stroke-linecap:round;stroke-miterlimit:10;"/>
            <path d="M223.482,166.52L278.838,166.52" style="fill:none;stroke:rgb(102,102,102);stroke-width:2px;stroke-linecap:round;stroke-linejoin:round;stroke-miterlimit:1.5;"/>
        </g>
    </g>
    <g transform="matrix(4.56214e-17,-0.419383,0.664256,1.94723e-17,254.305,295.534)">
        <g transform="matrix(6.98991e-17,1.50544,-2.38446,1.63765e-16,704.688,-382.842)">
            <path d="M565.891,162.02L568.891,166.52L565.891,171.02L565.891,162.02Z" style="fill:none;stroke:rgb(102,102,102);stroke-width:2px;stroke-linecap:round;stroke-miterlimit:10;"/>
            <path d="M472.377,166.52L565.891,166.52" style="fill:none;stroke:rgb(102,102,102);stroke-width:2px;stroke-linecap:round;stroke-linejoin:round;stroke-miterlimit:1.5;"/>
        </g>
    </g>
    <g transform="matrix(0.419383,2.70446e-17,3.00359e-17,0.732532,265.661,-17.8457)">
        <g transform="matrix(2.38446,-8.80324e-17,-9.77694e-17,1.36513,-633.457,24.3617)">
            <path d="M399.175,326.198L394.675,329.198L390.175,326.198L399.175,326.198Z" style="fill:none;stroke:rgb(102,102,102);stroke-width:2px;stroke-linecap:round;stroke-miterlimit:10;"/>
            <path d="M394.675,222.641L394.675,326.198" style="fill:none;stroke:rgb(102,102,102);stroke-width:2px;stroke-linecap:round;stroke-linejoin:round;stroke-miterlimit:1.5;"/>
        </g>
    </g>
    <g transform="matrix(0.419383,2.45348e-17,3.00359e-17,0.664553,265.661,224.471)">
        <g transform="matrix(2.38446,-8.80324e-17,-1.0777e-16,1.50477,-633.457,-337.778)">
            <path d="M399.175,536.198L394.675,539.198L390.175,536.198L399.175,536.198Z" style="fill:none;stroke:rgb(102,102,102);stroke-width:2px;stroke-linecap:round;stroke-miterlimit:10;"/>
            <path d="M394.675,442.641L394.675,536.198" style="fill:none;stroke:rgb(102,102,102);stroke-width:2px;stroke-linecap:round;stroke-linejoin:round;stroke-miterlimit:1.5;"/>
        </g>
    </g>
    <g transform="matrix(0.419383,2.93033e-17,3.00359e-17,0.793713,265.661,392.069)">
        <g transform="matrix(2.38446,-8.80324e-17,-9.02332e-17,1.2599,-633.457,-493.968)">
            <path d="M399.175,765.198L394.675,768.198L390.175,765.198L399.175,765.198Z" style="fill:none;stroke:rgb(102,102,102);stroke-width:2px;stroke-linecap:round;stroke-miterlimit:10;"/>
            <path d="M394.675,652.641L394.675,765.198" style="fill:none;stroke:rgb(102,102,102);stroke-width:2px;stroke-linecap:round;stroke-linejoin:round;stroke-miterlimit:1.5;"/>
        </g>
    </g>
    <g transform="matrix(4.17714e-17,-0.419383,0.6082,1.94723e-17,562.178,295.534)">
        <g transform="matrix(7.63415e-17,1.64419,-2.38446,1.63765e-16,704.688,-924.33)">
            <path d="M847.114,162.02L850.114,166.52L847.114,171.02L847.114,162.02Z" style="fill:none;stroke:rgb(102,102,102);stroke-width:2px;stroke-linecap:round;stroke-miterlimit:10;"/>
            <path d="M761.847,166.52L847.114,166.52" style="fill:none;stroke:rgb(102,102,102);stroke-width:2px;stroke-linecap:round;stroke-linejoin:round;stroke-miterlimit:1.5;"/>
        </g>
    </g>
    <g transform="matrix(4.56214e-17,-0.419383,0.664256,1.94723e-17,254.305,515.534)">
        <g transform="matrix(6.98991e-17,1.50544,-2.38446,1.63765e-16,1229.27,-382.842)">
            <path d="M565.891,382.02L568.891,386.52L565.891,391.02L565.891,382.02Z" style="fill:none;stroke:rgb(102,102,102);stroke-width:2px;stroke-linecap:round;stroke-miterlimit:10;"/>
            <path d="M472.377,386.52L565.891,386.52" style="fill:none;stroke:rgb(102,102,102);stroke-width:2px;stroke-linecap:round;stroke-linejoin:round;stroke-miterlimit:1.5;"/>
        </g>
    </g>
    <g transform="matrix(4.17714e-17,-0.419383,0.6082,1.94723e-17,562.178,515.534)">
        <g transform="matrix(7.63415e-17,1.64419,-2.38446,1.63765e-16,1229.27,-924.33)">
            <path d="M847.114,382.02L850.114,386.52L847.114,391.02L847.114,382.02Z" style="fill:none;stroke:rgb(102,102,102);stroke-width:2px;stroke-linecap:round;stroke-miterlimit:10;"/>
            <path d="M761.847,386.52L847.114,386.52" style="fill:none;stroke:rgb(102,102,102);stroke-width:2px;stroke-linecap:round;stroke-linejoin:round;stroke-miterlimit:1.5;"/>
        </g>
    </g>
    <g transform="matrix(4.56214e-17,-0.419383,0.664256,1.94723e-17,254.305,725.534)">
        <g transform="matrix(6.98991e-17,1.50544,-2.38446,1.63765e-16,1730,-382.842)">
            <path d="M565.891,592.02L568.891,596.52L565.891,601.02L565.891,592.02Z" style="fill:none;stroke:rgb(102,102,102);stroke-width:2px;stroke-linecap:round;stroke-miterlimit:10;"/>
            <path d="M472.377,596.52L565.891,596.52" style="fill:none;stroke:rgb(102,102,102);stroke-width:2px;stroke-linecap:round;stroke-linejoin:round;stroke-miterlimit:1.5;"/>
        </g>
    </g>
    <g transform="matrix(4.17714e-17,-0.419383,0.6082,1.94723e-17,562.178,725.534)">
        <g transform="matrix(7.63415e-17,1.64419,-2.38446,1.63765e-16,1730,-924.33)">
            <path d="M847.114,592.02L850.114,596.52L847.114,601.02L847.114,592.02Z" style="fill:none;stroke:rgb(102,102,102);stroke-width:2px;stroke-linecap:round;stroke-miterlimit:10;"/>
            <path d="M761.847,596.52L847.114,596.52" style="fill:none;stroke:rgb(102,102,102);stroke-width:2px;stroke-linecap:round;stroke-linejoin:round;stroke-miterlimit:1.5;"/>
        </g>
    </g>
    <g transform="matrix(4.56214e-17,-0.419383,0.664256,1.94723e-17,254.305,954.534)">
        <g transform="matrix(6.98991e-17,1.50544,-2.38446,1.63765e-16,2276.05,-382.842)">
            <path d="M565.891,821.02L568.891,825.52L565.891,830.02L565.891,821.02Z" style="fill:none;stroke:rgb(102,102,102);stroke-width:2px;stroke-linecap:round;stroke-miterlimit:10;"/>
            <path d="M472.377,825.52L565.891,825.52" style="fill:none;stroke:rgb(102,102,102);stroke-width:2px;stroke-linecap:round;stroke-linejoin:round;stroke-miterlimit:1.5;"/>
        </g>
    </g>
    <g transform="matrix(4.17714e-17,-0.419383,0.6082,1.94723e-17,562.178,952.534)">
        <g transform="matrix(7.63415e-17,1.64419,-2.38446,1.63765e-16,2271.28,-924.33)">
            <path d="M847.114,819.02L850.114,823.52L847.114,828.02L847.114,819.02Z" style="fill:none;stroke:rgb(102,102,102);stroke-width:2px;stroke-linecap:round;stroke-miterlimit:10;"/>
            <path d="M761.847,823.52L847.114,823.52" style="fill:none;stroke:rgb(102,102,102);stroke-width:2px;stroke-linecap:round;stroke-linejoin:round;stroke-miterlimit:1.5;"/>
        </g>
    </g>
    <g transform="matrix(0.802784,0,0,0.802784,770.568,77.0057)">
        <g id="text6981">
            <text x="0px" y="0px" style="font-family:'Roboto-Regular', 'Roboto';font-size:19.931px;fill:rgb(102,102,102);">Subf<tspan x="40.679px " y="0px ">e</tspan>ed A</text>
        </g>
    </g>
    <g transform="matrix(0.802784,0,0,0.802784,770.568,297.006)">
        <g id="text69811" serif:id="text6981">
            <text x="0px" y="0px" style="font-family:'Roboto-Regular', 'Roboto';font-size:19.931px;fill:rgb(102,102,102);">Subf<tspan x="40.679px " y="0px ">e</tspan>ed B</text>
        </g>
    </g>
    <g transform="matrix(0.802784,0,0,0.802784,770.568,519.006)">
        <g id="text69812" serif:id="text6981">
            <text x="0px" y="0px" style="font-family:'Roboto-Regular', 'Roboto';font-size:19.931px;fill:rgb(102,102,102);">Subf<tspan x="40.679px " y="0px ">e</tspan>ed C</text>
        </g>
    </g>
    <g transform="matrix(0.802784,0,0,0.802784,770.568,747.006)">
        <g id="text69813" serif:id="text6981">
            <text x="0px" y="0px" style="font-family:'Roboto-Regular', 'Roboto';font-size:19.931px;fill:rgb(102,102,102);">Subf<tspan x="40.679px " y="0px ">e</tspan>ed D</text>
        </g>
    </g>
    <g transform="matrix(1.37589,0,0,1.37589,604.437,381.338)">
        <text x="1.615px" y="0px" style="font-family:'Roboto-Regular', 'Roboto';font-size:11.629px;fill:rgb(102,102,102);">Application-speciﬁc</text>
        <text x="0.426px" y="13.955px" style="font-family:'Roboto-Regular', 'Roboto';font-size:11.629px;fill:rgb(102,102,102);">message in subf<tspan x="85.609px " y="13.955px ">e</tspan>ed</text>
    </g>
    <g transform="matrix(1.37589,0,0,1.37589,864.437,381.338)">
        <text x="1.615px" y="0px" style="font-family:'Roboto-Regular', 'Roboto';font-size:11.629px;fill:rgb(102,102,102);">Application-speciﬁc</text>
        <text x="0.426px" y="13.955px" style="font-family:'Roboto-Regular', 'Roboto';font-size:11.629px;fill:rgb(102,102,102);">message in subf<tspan x="85.609px " y="13.955px ">e</tspan>ed</text>
    </g>
    <g transform="matrix(1.37589,0,0,1.37589,604.437,591.338)">
        <text x="1.615px" y="0px" style="font-family:'Roboto-Regular', 'Roboto';font-size:11.629px;fill:rgb(102,102,102);">Application-speciﬁc</text>
        <text x="0.426px" y="13.955px" style="font-family:'Roboto-Regular', 'Roboto';font-size:11.629px;fill:rgb(102,102,102);">message in subf<tspan x="85.609px " y="13.955px ">e</tspan>ed</text>
    </g>
    <g transform="matrix(1.37589,0,0,1.37589,864.437,591.338)">
        <text x="1.615px" y="0px" style="font-family:'Roboto-Regular', 'Roboto';font-size:11.629px;fill:rgb(102,102,102);">Application-speciﬁc</text>
        <text x="0.426px" y="13.955px" style="font-family:'Roboto-Regular', 'Roboto';font-size:11.629px;fill:rgb(102,102,102);">message in subf<tspan x="85.609px " y="13.955px ">e</tspan>ed</text>
    </g>
    <g transform="matrix(1.37589,0,0,1.37589,604.437,818.338)">
        <text x="1.615px" y="0px" style="font-family:'Roboto-Regular', 'Roboto';font-size:11.629px;fill:rgb(102,102,102);">Application-speciﬁc</text>
        <text x="0.426px" y="13.955px" style="font-family:'Roboto-Regular', 'Roboto';font-size:11.629px;fill:rgb(102,102,102);">message in subf<tspan x="85.609px " y="13.955px ">e</tspan>ed</text>
    </g>
    <g transform="matrix(1.37589,0,0,1.37589,864.437,816.338)">
        <text x="1.615px" y="0px" style="font-family:'Roboto-Regular', 'Roboto';font-size:11.629px;fill:rgb(102,102,102);">Application-speciﬁc</text>
        <text x="0.426px" y="13.955px" style="font-family:'Roboto-Regular', 'Roboto';font-size:11.629px;fill:rgb(102,102,102);">message in subf<tspan x="85.609px " y="13.955px ">e</tspan>ed</text>
    </g>
</svg>
